<svg width="361" height="393" viewBox="0 0 361 393" fill="none" xmlns="http://www.w3.org/2000/svg">
<path d="M68.6192 225.739H300.129V261.651H68.6192V225.739Z" fill="#7CE3E1"/>
<path d="M86.0575 150.541C104.665 163.43 94.0588 191.71 106.796 233.202C111.258 247.728 122.926 285.73 151.649 304.369C191.736 330.38 227.579 294.374 308.777 306.755C342.399 311.883 394.534 326.944 394.332 342.65C393.957 371.57 216.351 385.187 154.314 389.945C83.4541 395.385 67.4366 391.945 52.6569 382.162C-15.7723 336.849 -14.4462 183.973 38.9445 152.364C52.1655 144.535 73.024 141.51 86.0575 150.541Z" fill="#4761FF"/>
<path d="M311.759 66.8236H312.365C330.62 66.8236 345.473 51.9708 345.473 33.7138V33.1099C345.473 14.8528 330.62 0 312.365 0H311.759C293.502 0 278.651 14.8528 278.651 33.1099V33.7138C278.651 51.9708 293.502 66.8236 311.759 66.8236ZM312.365 1.36543C329.864 1.36543 344.1 15.6031 344.1 33.1024V33.7063C344.1 51.2056 329.864 65.4432 312.365 65.4432H311.759C294.26 65.4432 280.024 51.2056 280.024 33.7063V33.1024C280.024 15.6031 294.26 1.36543 311.759 1.36543H312.365Z" fill="black"/>
<path d="M307.441 53.5014L287.54 31.0656L294.856 25.6057L307.258 39.5845L329.127 13.675L336.584 18.9736L307.441 53.5014Z" fill="#7CE3E1"/>
<path d="M273.078 310.051C273.078 310.051 297.101 330.046 298.847 337.076C300.593 344.106 249.046 325.937 249.046 325.937L251.995 309.164L273.078 310.051Z" fill="black"/>
<path d="M296.628 336.789C297.996 336.789 298.423 336.543 298.692 336.386C298.771 336.342 298.841 336.282 298.897 336.211C298.954 336.139 298.995 336.057 299.02 335.97C299.044 335.882 299.051 335.791 299.04 335.7C299.028 335.61 298.999 335.523 298.954 335.444C298.909 335.365 298.848 335.296 298.776 335.241C298.704 335.185 298.622 335.145 298.534 335.122C298.446 335.099 298.354 335.093 298.264 335.106C298.174 335.118 298.087 335.148 298.009 335.195C295.03 336.907 266.583 328.79 249.35 323.272C249.176 323.216 248.987 323.232 248.825 323.316C248.663 323.4 248.54 323.545 248.485 323.719C248.429 323.893 248.445 324.082 248.529 324.244C248.613 324.407 248.758 324.529 248.932 324.585C249.045 324.62 260.294 328.216 271.931 331.46C287.682 335.846 293.952 336.789 296.628 336.789Z" fill="white"/>
<path d="M273.893 318.343C274.052 318.342 274.206 318.287 274.328 318.185L278.668 314.621C278.803 314.504 278.887 314.339 278.902 314.16C278.917 313.982 278.862 313.805 278.748 313.667C278.634 313.529 278.471 313.44 278.293 313.421C278.115 313.401 277.937 313.452 277.796 313.562L273.456 317.125C273.346 317.215 273.267 317.337 273.229 317.473C273.192 317.61 273.197 317.755 273.245 317.888C273.293 318.021 273.381 318.137 273.497 318.218C273.613 318.3 273.751 318.343 273.893 318.343Z" fill="white"/>
<path d="M278.632 322.728C278.8 322.728 278.962 322.667 279.088 322.555L283.623 318.542C283.755 318.42 283.833 318.251 283.842 318.072C283.851 317.893 283.789 317.718 283.67 317.583C283.552 317.449 283.385 317.367 283.206 317.354C283.027 317.341 282.851 317.398 282.714 317.514L278.178 321.528C278.074 321.62 278 321.742 277.967 321.877C277.934 322.012 277.942 322.154 277.991 322.284C278.041 322.414 278.128 322.527 278.243 322.606C278.357 322.685 278.493 322.728 278.632 322.728Z" fill="white"/>
<path fill-rule="evenodd" clip-rule="evenodd" d="M278.101 188.098C278.101 188.098 274.35 186.443 273.037 186.123C260.283 183.019 220.815 180.588 220.815 180.588L220.748 178.266L166.307 176.437L161.077 186.123C161.077 186.123 155.363 199.815 159.221 211.805C163.079 223.796 172.912 226.108 179.07 226.414C183.491 226.636 222.638 226.54 244.341 226.469L239.97 314.228H286.948L294.044 213.816C294.53 208.381 293.238 202.935 290.363 198.297C287.488 193.659 283.185 190.08 278.101 188.098Z" fill="#FFB64F"/>
<path fill-rule="evenodd" clip-rule="evenodd" d="M191.519 201.806L185.929 314.23H232.907L244.354 201.184L191.519 201.806Z" fill="#FFB64F"/>
<path d="M327.938 65.7452C325.854 64.0966 323.041 67.4107 322.814 67.6846C323.022 67.4314 325.323 64.5298 322.679 63.5958C321.263 63.095 319.472 63.4082 317.45 66.6342C314.657 71.0794 312.309 74.9881 312.309 74.9881C312.873 72.0229 313.745 69.1245 314.91 66.3398C315.994 63.7683 314.488 62.5567 313.759 62.4216C311.95 62.0878 310.679 62.5248 308.402 67.21C306.125 71.8953 305.123 74.7499 305.123 74.7499C305.123 74.7499 293.183 75.1907 289.181 76.8431C287.583 77.5033 286.527 80.4555 285.833 83.7603C285.083 87.3126 281.881 112.022 280.065 118.312C286.396 120.413 292.767 122.386 299.219 124.084C300.423 124.401 303.257 124.646 303.257 124.646C303.257 124.646 304.454 101.046 305.041 93.1926C305.145 91.9622 305.574 90.7813 306.282 89.77C306.991 88.7586 307.954 87.9529 309.075 87.4346C314.139 85.0451 322.184 81.6709 322.731 81.0107C324.442 78.9475 326.858 74.5192 328.272 69.7571C329.077 67.0862 328.655 66.3098 327.938 65.7452Z" fill="#FFAE99"/>
<path d="M311.119 78.6944C311.266 78.6941 311.408 78.6472 311.526 78.5606C311.644 78.4739 311.732 78.352 311.776 78.2124L313.651 72.1524C313.705 71.9783 313.688 71.7899 313.603 71.6286C313.518 71.4673 313.372 71.3464 313.198 71.2924C313.024 71.2384 312.836 71.2558 312.675 71.3408C312.513 71.4257 312.392 71.5713 312.338 71.7454L310.463 77.8035C310.409 77.9774 310.426 78.1656 310.511 78.3266C310.596 78.4877 310.741 78.6086 310.915 78.6626C310.981 78.6841 311.05 78.6949 311.119 78.6944Z" fill="black"/>
<path fill-rule="evenodd" clip-rule="evenodd" d="M284.7 82.995L276.485 109.175C273.17 102.884 259.631 84.533 251.365 78.1372C240.875 70.0197 219.575 69.1944 219.575 69.1944C219.575 69.1944 201.215 68.7612 196.669 69.1194C189.044 69.7233 161.104 71.0325 150.529 88.6818C142.839 101.505 128.997 128.034 134.534 145.394C139.628 161.369 166.263 156.708 166.263 156.708C166.263 156.708 163.559 181.76 163.746 181.751C163.746 181.751 215.164 184.939 214.528 184.765C214.509 184.765 214.479 184.693 214.438 184.577L249.5 183.137L250.17 146.626C250.431 164.521 272.114 167.751 279.356 164.521C303.234 153.881 305.001 121.814 315.127 92.7162L284.7 82.995Z" fill="black"/>
<path d="M217.16 185.294C217.336 185.293 217.505 185.226 217.632 185.105C217.76 184.984 217.836 184.818 217.846 184.643C221.252 119.843 215.271 73.7801 215.211 73.3225C215.199 73.2331 215.169 73.147 215.123 73.0691C215.078 72.9912 215.017 72.923 214.945 72.8685C214.873 72.814 214.791 72.7742 214.704 72.7514C214.617 72.7285 214.526 72.7231 214.436 72.7354C214.347 72.7477 214.261 72.7776 214.183 72.8231C214.105 72.8687 214.037 72.9292 213.982 73.0012C213.928 73.0731 213.888 73.155 213.865 73.2424C213.842 73.3297 213.837 73.4206 213.849 73.5101C213.909 73.9677 219.874 119.914 216.475 184.579C216.47 184.669 216.483 184.759 216.513 184.844C216.543 184.929 216.589 185.007 216.649 185.074C216.71 185.141 216.783 185.196 216.864 185.234C216.946 185.273 217.034 185.295 217.124 185.299L217.16 185.294Z" fill="white"/>
<path fill-rule="evenodd" clip-rule="evenodd" d="M224.718 112.371C224.718 113.764 225.538 114.893 226.551 114.893C227.564 114.893 228.383 113.768 228.383 112.371C228.383 110.973 227.562 109.848 226.551 109.848C225.54 109.848 224.718 110.977 224.718 112.371Z" fill="#FCF8F7"/>
<path d="M224.18 172.798C223.168 172.798 222.348 171.669 222.348 170.276C222.348 168.883 223.168 167.753 224.18 167.753C225.192 167.753 226.013 168.883 226.013 170.276C226.013 171.669 225.192 172.798 224.18 172.798Z" fill="#FCF8F7"/>
<path fill-rule="evenodd" clip-rule="evenodd" d="M224.18 139.78C224.18 141.174 225.001 142.303 226.012 142.303C227.023 142.303 227.845 141.178 227.845 139.78C227.845 138.383 227.023 137.258 226.012 137.258C225.001 137.258 224.18 138.389 224.18 139.78Z" fill="#FCF8F7"/>
<path d="M250.226 154.078C250.406 154.078 250.578 154.008 250.706 153.883C250.834 153.758 250.908 153.588 250.913 153.409C250.913 153.09 251.704 121.285 249.448 100.114C249.438 100.024 249.411 99.9371 249.368 99.8579C249.325 99.7787 249.266 99.7089 249.196 99.6523C249.126 99.5957 249.045 99.5534 248.959 99.528C248.872 99.5026 248.782 99.4944 248.692 99.504C248.602 99.5136 248.516 99.5408 248.436 99.584C248.357 99.6272 248.287 99.6855 248.231 99.7557C248.174 99.8259 248.132 99.9066 248.107 99.9931C248.081 100.08 248.073 100.17 248.083 100.26C250.333 121.34 249.549 153.056 249.54 153.373C249.538 153.463 249.553 153.553 249.586 153.637C249.618 153.721 249.667 153.798 249.729 153.863C249.791 153.929 249.866 153.981 249.948 154.018C250.03 154.054 250.119 154.074 250.209 154.076L250.226 154.078Z" fill="white"/>
<path d="M270.164 125.777C270.302 125.777 270.436 125.736 270.55 125.659C270.663 125.581 270.751 125.472 270.802 125.344L277.123 109.428C277.19 109.258 277.187 109.069 277.115 108.902C277.042 108.735 276.906 108.603 276.737 108.536C276.568 108.469 276.379 108.472 276.211 108.544C276.044 108.616 275.912 108.752 275.845 108.921L269.53 124.836C269.462 125.004 269.463 125.192 269.533 125.36C269.604 125.527 269.737 125.66 269.905 125.729C269.988 125.761 270.076 125.777 270.164 125.777Z" fill="white"/>
<path d="M266.981 113.954C267.096 113.954 267.21 113.925 267.311 113.869L273.656 110.392C273.735 110.348 273.805 110.29 273.861 110.22C273.918 110.149 273.96 110.069 273.985 109.982C274.01 109.896 274.018 109.805 274.009 109.715C273.999 109.626 273.971 109.539 273.928 109.46C273.885 109.381 273.826 109.311 273.756 109.254C273.686 109.198 273.605 109.156 273.518 109.131C273.432 109.105 273.341 109.097 273.252 109.107C273.162 109.117 273.075 109.144 272.996 109.188L266.653 112.665C266.519 112.738 266.413 112.854 266.353 112.994C266.292 113.134 266.28 113.29 266.318 113.437C266.355 113.585 266.441 113.716 266.562 113.81C266.682 113.903 266.83 113.954 266.983 113.954H266.981Z" fill="white"/>
<path fill-rule="evenodd" clip-rule="evenodd" d="M193.568 137.102L194.814 122.729C196.389 117.924 200.037 113.269 202.273 111.817C207.048 108.711 223 109.833 223.115 112.38C223.229 114.927 208.284 117.375 208.284 117.375C208.284 117.375 220.783 122.251 220.877 124.652C220.971 127.053 216.728 127.156 216.728 127.156C216.728 127.156 218.701 130.022 217.34 131.927C215.978 133.833 214.937 133.779 214.937 133.779C214.937 133.779 217.884 136.433 214.417 137.125C210.951 137.817 203.785 135.393 203.785 135.393C203.785 135.393 199.801 145.39 192.229 145.39L193.568 137.102Z" fill="#FFAE99"/>
<path d="M171.515 124.688C171.675 124.687 171.83 124.63 171.952 124.527C172.075 124.425 172.158 124.282 172.187 124.125L176.836 100.708C176.862 100.533 176.82 100.355 176.718 100.211C176.616 100.067 176.463 99.9671 176.29 99.9327C176.116 99.8982 175.937 99.9316 175.787 100.026C175.638 100.12 175.531 100.269 175.488 100.44L170.84 123.857C170.805 124.036 170.842 124.221 170.943 124.373C171.044 124.524 171.202 124.629 171.38 124.665C171.425 124.676 171.47 124.684 171.515 124.688Z" fill="white"/>
<path d="M166.258 157.394H166.29L190.785 156.269C190.947 156.262 191.101 156.197 191.221 156.087C191.34 155.977 191.416 155.828 191.436 155.667L195.496 122.806C195.509 122.704 195.498 122.601 195.466 122.504C195.434 122.407 195.38 122.318 195.309 122.244C195.239 122.17 195.155 122.113 195.061 122.077C194.967 122.04 194.866 122.025 194.765 122.032L160.008 124.391C159.826 124.403 159.657 124.487 159.537 124.624C159.417 124.762 159.357 124.941 159.369 125.123C159.381 125.304 159.465 125.474 159.602 125.594C159.739 125.714 159.918 125.774 160.1 125.762L194.032 123.48L190.143 154.941L166.228 156.032C166.052 156.045 165.887 156.124 165.768 156.255C165.649 156.385 165.585 156.556 165.589 156.732C165.593 156.909 165.665 157.077 165.789 157.202C165.914 157.327 166.081 157.399 166.258 157.404V157.394Z" fill="white"/>
<path d="M241.855 227.164C242.029 227.164 242.196 227.098 242.323 226.979C242.45 226.86 242.528 226.698 242.54 226.525L243.435 213.865C244.453 202.48 237.718 191.614 227.055 187.458L227.008 187.441L214.733 183.647C214.558 183.593 214.37 183.611 214.209 183.696C214.048 183.781 213.927 183.927 213.873 184.101C213.82 184.275 213.837 184.463 213.923 184.624C214.008 184.785 214.153 184.906 214.327 184.96L226.579 188.75C231.507 190.698 235.676 194.183 238.466 198.689C241.256 203.194 242.519 208.48 242.065 213.76L241.171 226.433C241.158 226.614 241.218 226.793 241.338 226.931C241.457 227.068 241.625 227.153 241.807 227.166L241.855 227.164Z" fill="black"/>
<path d="M244.333 227.155C244.469 227.155 244.601 227.114 244.714 227.039C244.827 226.963 244.915 226.856 244.967 226.731L251.736 210.507C251.806 210.339 251.806 210.15 251.737 209.982C251.667 209.813 251.534 209.68 251.366 209.61C251.197 209.54 251.008 209.54 250.84 209.609C250.672 209.679 250.538 209.812 250.468 209.98L243.699 226.212C243.656 226.316 243.638 226.429 243.649 226.542C243.66 226.655 243.699 226.763 243.761 226.857C243.824 226.951 243.909 227.028 244.009 227.081C244.109 227.135 244.22 227.163 244.333 227.163V227.155Z" fill="black"/>
<path d="M189.853 227.155C190.035 227.155 190.209 227.083 190.338 226.954C190.467 226.825 190.539 226.651 190.539 226.469V210.656C190.539 210.473 190.467 210.299 190.338 210.17C190.209 210.041 190.035 209.969 189.853 209.969C189.671 209.969 189.496 210.041 189.367 210.17C189.238 210.299 189.166 210.473 189.166 210.656V226.469C189.166 226.651 189.238 226.825 189.367 226.954C189.496 227.083 189.671 227.155 189.853 227.155Z" fill="black"/>
<path d="M211.631 16.0289C211.105 17.4179 210.739 18.8619 210.539 20.3334C210.539 20.3334 211.867 17.9008 211.631 16.0289Z" fill="black"/>
<path d="M220.549 28.8128C219.986 27.663 219.468 26.684 219.058 25.9375C218.799 25.4641 218.396 25.0859 217.907 24.8584C217.418 24.6309 216.868 24.5661 216.34 24.6733C212.082 25.5436 202.475 28.5427 200.082 30.3151C197.406 32.2976 199.94 41.0266 202.862 46.2896C203.146 46.802 203.369 47.3459 203.528 47.9101L200.695 51.0817L195.553 65.6401L214.537 73.4182L216.767 71.4938L219.768 57.5806C230.307 52.2071 224.36 36.5852 220.549 28.8128Z" fill="#FFAE99"/>
<path d="M217.604 34.8184C217.699 34.8188 217.792 34.7994 217.879 34.7616C217.966 34.7239 218.044 34.6685 218.109 34.599C218.127 34.5784 219.275 33.3817 220.558 33.8281C220.644 33.8601 220.735 33.8747 220.826 33.871C220.918 33.8673 221.007 33.8454 221.09 33.8066C221.173 33.7677 221.247 33.7127 221.308 33.6448C221.369 33.5769 221.416 33.4975 221.447 33.4112C221.477 33.3248 221.489 33.2334 221.484 33.1421C221.478 33.0509 221.454 32.9617 221.413 32.8798C221.373 32.7979 221.316 32.725 221.247 32.6653C221.177 32.6056 221.097 32.5603 221.01 32.5321C218.866 31.7819 217.169 33.5918 217.099 33.6687C217.038 33.735 216.991 33.8127 216.96 33.8974C216.929 33.982 216.915 34.072 216.919 34.1621C216.922 34.2522 216.944 34.3407 216.982 34.4224C217.02 34.5042 217.074 34.5775 217.141 34.6384C217.267 34.7551 217.432 34.8195 217.604 34.8184Z" fill="black"/>
<path d="M208.573 39.1794C208.73 39.179 208.883 39.1248 209.005 39.0259C209.127 38.9269 209.212 38.7891 209.245 38.6354C209.297 38.4029 209.83 36.3847 212.621 36.833C212.71 36.8472 212.801 36.8436 212.888 36.8226C212.976 36.8017 213.059 36.7636 213.132 36.7107C213.205 36.6577 213.266 36.5909 213.314 36.5141C213.361 36.4372 213.392 36.3518 213.407 36.2628C213.421 36.1738 213.417 36.0828 213.396 35.9951C213.375 35.9074 213.337 35.8248 213.284 35.7518C213.231 35.6788 213.164 35.617 213.088 35.5698C213.011 35.5227 212.925 35.4911 212.836 35.4769C209.513 34.9518 208.159 37.1275 207.905 38.3522C207.869 38.5308 207.905 38.7166 208.005 38.8688C208.105 39.021 208.261 39.1273 208.44 39.1643C208.484 39.1736 208.528 39.1786 208.573 39.1794Z" fill="black"/>
<path d="M211.011 40.691C210.88 40.3441 210.726 39.9989 210.636 39.6388C210.496 39.3537 210.698 38.9749 210.989 38.8548C211.034 38.8389 211.082 38.8288 211.13 38.8248C211.22 38.7881 211.32 38.7834 211.413 38.8113C211.506 38.8393 211.587 38.8984 211.642 38.9786C211.642 38.9899 211.655 39.0049 211.662 39.018C211.704 39.063 211.741 39.1128 211.771 39.1662C211.934 39.5018 212.08 39.8455 212.208 40.1959C212.36 40.571 212.51 40.8542 212.345 41.2612C212.286 41.3892 212.181 41.4904 212.052 41.545C211.922 41.5995 211.776 41.6033 211.644 41.5557C211.235 41.3813 211.148 41.068 211.011 40.691Z" fill="black"/>
<path d="M220.228 37.4181C220.085 37.0739 219.96 36.7227 219.853 36.3659C219.712 36.0808 219.917 35.7019 220.206 35.5819C220.251 35.5659 220.298 35.5558 220.346 35.5519C220.436 35.5146 220.536 35.5094 220.629 35.537C220.722 35.5647 220.803 35.6236 220.858 35.7038L220.879 35.7451C220.922 35.7891 220.958 35.839 220.988 35.8932C221.152 36.2284 221.298 36.5721 221.425 36.9229C221.578 37.298 221.729 37.5813 221.562 37.9883C221.502 38.1159 221.398 38.2167 221.268 38.2709C221.138 38.3251 220.992 38.3286 220.86 38.2809C220.457 38.1083 220.371 37.7951 220.228 37.4181Z" fill="black"/>
<path d="M217.15 50.0727C218.418 50.0727 219.483 49.1705 219.964 48.5235C220.068 48.3779 220.112 48.1972 220.085 48.0199C220.058 47.8426 219.963 47.6828 219.82 47.5748C219.677 47.4667 219.497 47.4189 219.319 47.4416C219.141 47.4644 218.98 47.5558 218.868 47.6963C218.744 47.8576 217.63 49.2399 216.364 48.4578C215.528 47.942 215.762 46.7304 215.772 46.6798C215.804 46.5038 215.766 46.3221 215.667 46.1734C215.567 46.0248 215.413 45.921 215.238 45.884C215.063 45.8471 214.88 45.88 214.729 45.9758C214.578 46.0715 214.47 46.2225 214.429 46.3965C214.41 46.4866 213.979 48.5985 215.642 49.6263C216.092 49.9154 216.615 50.0703 217.15 50.0727Z" fill="black"/>
<path d="M221.985 46.1527C222.122 46.1527 222.255 46.112 222.369 46.0358C222.482 45.9597 222.57 45.8515 222.621 45.7251C222.743 45.4287 223.771 42.771 222.586 41.1824C221.982 40.374 220.973 40.2446 219.995 40.1039C218.889 39.952 217.842 39.8094 217.146 38.8491C215.916 37.1611 217.522 34.9104 217.538 34.8804C217.646 34.7334 217.691 34.5496 217.663 34.3695C217.635 34.1894 217.537 34.0278 217.39 33.9201C217.243 33.8124 217.059 33.7675 216.879 33.7953C216.699 33.8231 216.538 33.9212 216.43 34.0682C216.34 34.1939 214.215 37.1423 216.034 39.6556C217.075 41.0905 218.591 41.2987 219.812 41.4637C220.562 41.5669 221.226 41.6513 221.485 42.0039C222.1 42.8254 221.58 44.6297 221.35 45.2093C221.309 45.3131 221.294 45.4254 221.306 45.5363C221.318 45.6472 221.358 45.7535 221.42 45.8458C221.483 45.9382 221.567 46.0139 221.666 46.0664C221.764 46.1189 221.874 46.1466 221.985 46.1471V46.1527Z" fill="black"/>
<path d="M213.026 57.3275C212.841 57.2906 212.65 57.3047 212.472 57.3683C212.295 57.4319 212.138 57.5427 212.019 57.6887C211.9 57.8346 211.823 58.0103 211.796 58.1968C211.769 58.3834 211.794 58.5737 211.867 58.7473L217.604 67.5626L219.9 57.41L213.026 57.3275Z" fill="#EA8165"/>
<path d="M225.701 15.4867C225.112 9.67238 216.97 8.54703 214.039 11.8593C212.93 13.1103 211.7 15.3085 211.631 16.0288C211.497 14.9766 210.88 14.1025 209.239 13.9356C204.697 13.4742 203.922 19.8006 203.922 19.8006C203.922 19.8006 192.123 18.5158 186.56 30.1464C182.204 39.2524 187.497 47.5219 198.31 57.8095C198.31 57.8095 202.581 55.3712 203.772 50.6972C204.123 49.3206 203.682 47.7657 202.862 46.2896C201.762 44.2689 200.855 42.1488 200.154 39.9576C201.887 39.2599 203.155 37.1011 203.155 34.5428C203.155 32.4796 202.335 30.6865 201.112 29.6981C204.509 27.9144 212.553 25.4499 216.346 24.6734C216.874 24.5661 217.424 24.631 217.913 24.8585C218.402 25.086 218.805 25.4641 219.064 25.9375C219.474 26.6878 219.992 27.6631 220.555 28.8128C221.928 26.8641 226.204 20.3764 225.701 15.4867Z" fill="#1A1A1A"/>
<path d="M205.186 49.6468C204.004 51.1473 201.435 51.2617 199.452 49.9075C197.47 48.5533 196.813 46.2389 197.995 44.7403C199.177 43.2417 201.746 43.1235 203.729 44.4777C205.711 45.8319 206.368 48.1463 205.186 49.6468Z" fill="#FFAE99"/>
<path d="M204.584 48.8535C204.666 48.8538 204.747 48.8392 204.824 48.8104C204.994 48.7464 205.132 48.6175 205.208 48.4519C205.283 48.2864 205.29 48.0976 205.227 47.927C204.04 44.7385 200.621 44.5509 198.981 44.8923C198.893 44.9108 198.809 44.9464 198.735 44.9973C198.66 45.0482 198.597 45.1132 198.547 45.1887C198.498 45.2642 198.464 45.3487 198.447 45.4373C198.43 45.526 198.431 45.617 198.45 45.7053C198.468 45.7936 198.504 45.8775 198.555 45.952C198.606 46.0265 198.671 46.0902 198.746 46.1396C198.822 46.189 198.906 46.223 198.995 46.2397C199.083 46.2565 199.175 46.2556 199.263 46.2371C199.42 46.2052 202.871 45.5375 203.941 48.4071C203.99 48.5381 204.078 48.651 204.193 48.7307C204.307 48.8105 204.444 48.8533 204.584 48.8535Z" fill="black"/>
<path fill-rule="evenodd" clip-rule="evenodd" d="M225.699 70.496L219.367 59.7639L214.046 71.4657L197.939 58.8599L188.863 69.8527L205.788 87.3839L214.53 73.4126L224.354 86.3035L225.699 70.496Z" fill="black"/>
<path d="M205.788 88.0705C205.817 88.0723 205.846 88.0723 205.874 88.0705C205.976 88.0581 206.073 88.0232 206.159 87.9684C206.245 87.9135 206.318 87.8401 206.371 87.7535L214.587 74.6243L223.809 86.7181C223.893 86.8285 224.008 86.9109 224.14 86.9544C224.271 86.998 224.413 87.0006 224.546 86.962C224.679 86.9235 224.798 86.8455 224.886 86.7383C224.974 86.6312 225.027 86.4999 225.039 86.3618L226.384 70.9819C226.394 70.891 226.386 70.799 226.36 70.7112C226.334 70.6235 226.291 70.5419 226.233 70.4711C226.175 70.4003 226.103 70.3418 226.022 70.2991C225.942 70.2564 225.853 70.2302 225.762 70.2222C225.671 70.2142 225.579 70.2245 225.492 70.2525C225.405 70.2805 225.324 70.3256 225.255 70.3852C225.185 70.4448 225.128 70.5177 225.088 70.5995C225.047 70.6814 225.023 70.7706 225.017 70.8619L223.826 84.4749L215.076 72.9944C215.009 72.9063 214.921 72.8358 214.821 72.7889C214.721 72.7421 214.61 72.7203 214.5 72.7255C214.389 72.7306 214.281 72.7626 214.186 72.8186C214.09 72.8746 214.009 72.9529 213.951 73.0469L205.655 86.3036L190.328 71.6609C190.263 71.5942 190.186 71.5411 190.101 71.505C190.016 71.4688 189.924 71.4503 189.832 71.4505C189.739 71.4507 189.647 71.4696 189.562 71.5061C189.477 71.5426 189.4 71.596 189.336 71.6629C189.273 71.7299 189.223 71.8091 189.19 71.8958C189.158 71.9825 189.143 72.0749 189.147 72.1674C189.151 72.2599 189.174 72.3506 189.214 72.4341C189.254 72.5175 189.311 72.592 189.38 72.6531L205.323 87.8791C205.448 87.9995 205.614 88.0678 205.788 88.0705Z" fill="black"/>
<path d="M210.074 117.99C210.236 117.99 210.393 117.933 210.517 117.829C210.641 117.725 210.724 117.58 210.752 117.42C210.779 117.261 210.75 117.096 210.668 116.957C210.586 116.817 210.457 116.71 210.304 116.656L205.675 115.008C205.504 114.946 205.315 114.956 205.15 115.034C204.986 115.112 204.859 115.252 204.798 115.424C204.737 115.596 204.746 115.784 204.824 115.949C204.902 116.114 205.042 116.241 205.214 116.302L209.843 117.95C209.917 117.976 209.995 117.989 210.074 117.99Z" fill="black"/>
<path d="M218.032 128.418C218.189 128.417 218.34 128.362 218.462 128.263C218.583 128.164 218.667 128.026 218.699 127.873C218.731 127.719 218.71 127.56 218.639 127.42C218.567 127.28 218.451 127.169 218.308 127.105L205.856 121.64C205.689 121.567 205.5 121.563 205.33 121.629C205.16 121.695 205.024 121.826 204.951 121.993C204.877 122.16 204.874 122.349 204.94 122.519C205.006 122.689 205.137 122.825 205.304 122.898L217.764 128.356C217.848 128.395 217.939 128.416 218.032 128.418Z" fill="black"/>
<path d="M215.721 134.836C215.88 134.839 216.034 134.787 216.158 134.689C216.282 134.592 216.369 134.454 216.403 134.299C216.438 134.145 216.418 133.983 216.347 133.842C216.276 133.701 216.158 133.588 216.014 133.523L204.834 128.296C204.752 128.256 204.663 128.233 204.572 128.228C204.481 128.222 204.389 128.235 204.304 128.266C204.218 128.296 204.139 128.343 204.071 128.404C204.004 128.466 203.949 128.54 203.91 128.622C203.872 128.705 203.85 128.794 203.846 128.885C203.843 128.976 203.857 129.067 203.889 129.153C203.921 129.238 203.969 129.316 204.032 129.383C204.094 129.449 204.169 129.503 204.252 129.54L215.431 134.767C215.521 134.812 215.62 134.835 215.721 134.836Z" fill="black"/>
<path d="M317.129 80.8756C317.261 80.8759 317.391 80.8378 317.502 80.7659C317.613 80.694 317.701 80.5914 317.755 80.4705C318.17 79.5515 324.361 66.94 324.423 66.8143C324.504 66.6509 324.516 66.4623 324.457 66.2899C324.398 66.1176 324.273 65.9756 324.11 65.8953C323.947 65.8149 323.758 65.8028 323.586 65.8615C323.413 65.9203 323.271 66.0451 323.191 66.2085C322.936 66.728 316.926 78.9625 316.504 79.9003C316.457 80.0047 316.437 80.1193 316.445 80.2337C316.453 80.348 316.49 80.4584 316.553 80.5547C316.615 80.6511 316.7 80.7303 316.801 80.785C316.902 80.8398 317.014 80.8683 317.129 80.8681V80.8756Z" fill="black"/>
<path d="M322.585 82.6067C322.715 82.6068 322.842 82.5701 322.952 82.5007C323.062 82.4313 323.15 82.3321 323.205 82.2147L329.414 69.1231C329.492 68.9584 329.501 68.7695 329.44 68.5978C329.379 68.4262 329.252 68.2859 329.087 68.2078C328.923 68.1297 328.734 68.1202 328.562 68.1814C328.39 68.2426 328.25 68.3695 328.172 68.5341L321.966 81.6258C321.927 81.7073 321.905 81.7956 321.9 81.8858C321.896 81.9759 321.909 82.0661 321.939 82.1511C321.969 82.2361 322.016 82.3143 322.077 82.3812C322.137 82.4481 322.21 82.5025 322.292 82.5411C322.383 82.5847 322.483 82.6072 322.585 82.6067Z" fill="black"/>
<path d="M205.788 88.0704H205.861C205.965 88.0595 206.064 88.0251 206.153 87.9699C206.241 87.9146 206.316 87.84 206.371 87.7516L214.586 74.6224L223.809 86.7181C223.892 86.8285 224.008 86.9109 224.139 86.9544C224.271 86.998 224.413 87.0006 224.546 86.962C224.679 86.9235 224.798 86.8455 224.886 86.7383C224.974 86.6312 225.027 86.4999 225.039 86.3618L226.447 69.7984C226.458 69.7071 226.45 69.6145 226.425 69.5262C226.399 69.4379 226.356 69.3557 226.297 69.2844C226.239 69.2132 226.167 69.1543 226.086 69.1114C226.005 69.0685 225.916 69.0424 225.824 69.0346C225.732 69.0268 225.64 69.0375 225.552 69.066C225.465 69.0946 225.384 69.1405 225.315 69.2009C225.246 69.2613 225.189 69.335 225.149 69.4177C225.108 69.5003 225.085 69.5903 225.08 69.6821L223.822 84.4674L215.076 72.9907C215.009 72.9025 214.921 72.832 214.821 72.7852C214.72 72.7383 214.61 72.7166 214.499 72.7217C214.389 72.7269 214.281 72.7588 214.185 72.8148C214.09 72.8708 214.009 72.9492 213.95 73.0432L205.673 86.2699L189.356 69.3708C189.229 69.2413 189.056 69.1672 188.875 69.1645C188.694 69.1619 188.519 69.231 188.389 69.3567C188.258 69.4824 188.183 69.6546 188.179 69.8357C188.175 70.0168 188.243 70.1922 188.367 70.3236L205.293 87.8547C205.356 87.9223 205.433 87.9763 205.518 88.0133C205.603 88.0504 205.695 88.0698 205.788 88.0704Z" fill="white"/>
</svg>
