<svg width="91" height="112" viewBox="0 0 91 112" fill="none" xmlns="http://www.w3.org/2000/svg">
<path d="M54.4343 110.298L3.81699 83.6075C2.98487 83.1696 2.24738 82.5718 1.64683 81.8483C1.04628 81.1247 0.594479 80.2898 0.317337 79.3912C0.0401951 78.4927 -0.0568325 77.5483 0.031823 76.6122C0.120479 75.6761 0.393066 74.7667 0.83396 73.9362L37.8235 3.81925C38.7144 2.14096 40.2334 0.883497 42.0485 0.321609C43.8636 -0.240279 45.8273 -0.0609113 47.5106 0.820519L79.6802 17.7767L91 56.509L64.1213 107.299C63.2304 108.977 61.7115 110.235 59.8964 110.797C58.0813 111.359 56.1176 111.179 54.4343 110.298Z" fill="#029491"/>
<g opacity="0.3">
<path d="M79.6803 17.7761L69.2554 37.4955C68.4342 39.0601 68.2656 40.8861 68.7862 42.5746C69.3069 44.2631 70.4746 45.677 72.0343 46.5074L91.0001 56.5084L79.6803 17.7761Z" fill="white"/>
</g>
<g opacity="0.2">
<path d="M68.5477 39.3643C67.7699 40.8641 67.5281 42.5847 67.8622 44.2409C68.1962 45.897 69.0862 47.3893 70.3846 48.4704L70.9341 48.9257C73.1792 50.6841 87.9374 62.1923 88.2043 61.8155C88.4712 61.4387 90.9989 56.5088 90.9989 56.5088L72.0331 46.5078C72.0331 46.5078 67.3231 43.8388 68.5477 39.3643Z" fill="black"/>
</g>
<path d="M65.3769 34.4503C65.2356 34.7015 59.8975 32.1424 53.4291 28.7198C46.9606 25.2971 41.8266 22.3455 41.9993 22.0786C42.1721 21.8117 47.4944 24.3865 53.9629 27.8091C60.4313 31.2318 65.5496 34.1991 65.3769 34.4503Z" fill="#FAFAFA"/>
<path d="M74.6097 53.6515C74.4841 53.9027 65.7391 49.5538 55.0944 43.9331C44.4497 38.3125 35.9402 33.4925 36.0658 33.2413C36.1914 32.9901 44.9364 37.3391 55.5811 42.9597C66.2258 48.5804 74.751 53.3375 74.6097 53.6515Z" fill="#FAFAFA"/>
<path d="M73.1646 64.7361C73.039 64.9873 63.5247 60.2301 51.9223 54.0914C40.3199 47.9526 31.0097 42.8029 31.151 42.5517C31.2923 42.3005 40.8066 47.0577 52.409 53.1808C64.0114 59.3038 73.3059 64.4849 73.1646 64.7361Z" fill="#FAFAFA"/>
<path d="M68.5348 73.5122C68.3935 73.7634 58.8792 69.0062 47.2767 62.8832C35.6743 56.7601 26.3798 51.5791 26.5211 51.3279C26.6624 51.0767 36.161 55.8338 47.7634 61.9569C59.3659 68.0799 68.6918 73.261 68.5348 73.5122Z" fill="#FAFAFA"/>
<path d="M63.886 82.3042C63.7604 82.5554 54.2461 77.7982 42.6437 71.6594C31.0413 65.5207 21.7468 60.371 21.8724 60.1198C21.998 59.8686 31.528 64.6415 43.1304 70.7488C54.7328 76.8562 63.9802 82.053 63.886 82.3042Z" fill="#FAFAFA"/>
<path d="M59.2711 91.0803C59.1298 91.3315 49.6155 86.5744 38.0288 80.4513C26.442 74.3282 17.1161 69.1472 17.2574 68.896C17.3987 68.6448 26.8973 73.4019 38.4998 79.525C50.1022 85.6481 59.3967 90.8291 59.2711 91.0803Z" fill="#FAFAFA"/>
</svg>
