<svg width="435" height="471" viewBox="0 0 435 471" fill="none" xmlns="http://www.w3.org/2000/svg">
<path d="M391.556 118.723H91.8242V343.945H391.556V118.723Z" fill="white"/>
<path d="M391.556 343.945C391.556 343.945 391.556 343.584 391.556 342.891C391.556 342.199 391.556 341.165 391.556 339.811C391.556 337.101 391.556 333.087 391.506 327.839C391.506 317.363 391.446 301.969 391.395 282.321C391.345 243.085 391.265 186.829 391.175 118.753L391.606 119.184L91.9048 119.274L92.4266 118.753C92.4266 199.734 92.4266 276.41 92.4266 343.975L91.955 343.503L308.287 343.734L369.73 343.865L386.037 343.925H390.241H391.315H390.261H386.117L369.901 343.985L308.568 344.116L91.9249 344.346H91.3529V343.875C91.3529 276.31 91.3529 199.634 91.3027 118.652V118.13H91.8547L391.556 118.231H391.997V118.652C391.907 186.889 391.837 243.225 391.777 282.522C391.727 302.13 391.696 317.483 391.666 327.939C391.666 333.147 391.666 337.141 391.666 339.831C391.666 341.165 391.666 342.179 391.666 342.841C391.666 343.503 391.556 343.945 391.556 343.945Z" fill="#263238"/>
<path d="M390.051 146.308C389.801 146.341 389.55 146.357 389.298 146.359H387.07L378.521 146.449C371.105 146.509 360.358 146.539 347.091 146.529C320.539 146.529 283.872 146.339 243.371 146.007L139.651 145.174L108.211 144.924L99.6718 144.823L97.444 144.763C97.194 144.792 96.9415 144.792 96.6914 144.763C96.9395 144.718 97.1921 144.701 97.444 144.713H99.6718L108.211 144.623C115.637 144.562 126.375 144.532 139.651 144.532C166.193 144.532 202.87 144.733 243.381 145.064L347.091 145.897L378.531 146.138L387.07 146.248H389.298C389.55 146.242 389.803 146.262 390.051 146.308Z" fill="#263238"/>
<path d="M111.402 130.122C111.404 130.821 111.199 131.506 110.811 132.088C110.424 132.67 109.872 133.125 109.227 133.393C108.581 133.662 107.87 133.733 107.184 133.597C106.497 133.461 105.867 133.124 105.372 132.63C104.878 132.135 104.541 131.505 104.405 130.819C104.269 130.132 104.34 129.421 104.609 128.776C104.877 128.13 105.332 127.578 105.914 127.191C106.496 126.803 107.181 126.598 107.88 126.6C108.814 126.602 109.708 126.974 110.368 127.634C111.028 128.294 111.4 129.189 111.402 130.122Z" fill="#263238"/>
<path d="M125.522 130.122C125.524 130.821 125.318 131.505 124.931 132.087C124.544 132.669 123.993 133.123 123.348 133.392C122.703 133.661 121.992 133.733 121.306 133.597C120.62 133.462 119.99 133.127 119.495 132.633C119 132.14 118.663 131.51 118.526 130.825C118.389 130.139 118.458 129.428 118.725 128.782C118.992 128.136 119.445 127.584 120.026 127.196C120.607 126.807 121.29 126.6 121.989 126.6C122.924 126.6 123.821 126.97 124.483 127.631C125.146 128.291 125.519 129.187 125.522 130.122Z" fill="#263238"/>
<path d="M136.108 133.694C138.059 133.694 139.641 132.113 139.641 130.162C139.641 128.211 138.059 126.63 136.108 126.63C134.158 126.63 132.576 128.211 132.576 130.162C132.576 132.113 134.158 133.694 136.108 133.694Z" fill="#263238"/>
<path d="M205.659 277.042H144.065V323.153H205.659V277.042Z" fill="#EBEBEB"/>
<path d="M273.306 277.042H211.712V323.153H273.306V277.042Z" fill="#EBEBEB"/>
<path d="M352.138 277.042H290.544V323.153H352.138V277.042Z" fill="#EBEBEB"/>
<path d="M252.115 256.167C223.123 236.899 226.502 196.723 233.994 179.566L256.597 175.627C248.97 185.028 248.166 219.115 257.784 226.473C267.401 233.832 285.289 233.741 292.365 223.91C297.928 216.193 298.704 198.316 308.102 196.878C304.164 176.921 318.301 155.131 338.128 150.604C339.204 144.974 341.541 139.661 344.963 135.063C348.385 130.465 352.804 126.701 357.888 124.054C362.972 121.407 368.589 119.945 374.318 119.778C380.047 119.611 385.74 120.744 390.969 123.09L390.535 187.774C390.535 187.774 396.696 218.466 377.541 225.626C370.998 228.071 364.511 226.646 358.993 224.012C358.571 224.993 357.966 225.886 357.21 226.641C354.238 229.549 349.597 230.308 345.51 229.436C344.983 229.323 344.493 229.186 343.956 229.009C339.65 242.243 327.304 256.469 315.876 262.418C299.344 271.077 267.711 266.525 252.115 256.167Z" fill="#F5F5F5"/>
<path d="M311.92 203.719C311.92 203.719 311.892 203.609 311.794 203.4L311.365 202.507C311.168 202.111 310.931 201.622 310.698 201.03C310.464 200.438 310.151 199.764 309.904 198.978C308.338 194.552 307.652 189.862 307.885 185.172C308.029 181.957 308.621 178.778 309.644 175.726C310.801 172.201 312.55 168.899 314.817 165.962C320.044 159.183 327.527 154.503 335.909 152.768C337.11 152.509 338.329 152.377 339.459 152.239L339.68 152.219L339.691 152.004C340.076 147.071 341.496 142.274 343.858 137.927C346.22 133.579 349.471 129.778 353.4 126.77C354.769 125.768 356.195 124.847 357.671 124.011C360.311 122.487 363.13 121.297 366.063 120.466C370.295 119.232 374.749 118.96 379.1 119.671C379.875 119.778 380.539 119.936 381.124 120.071C381.617 120.175 382.105 120.303 382.586 120.456L383.486 120.707C383.586 120.745 383.69 120.768 383.797 120.773C383.797 120.773 383.702 120.717 383.503 120.659L382.62 120.359C382.143 120.185 381.656 120.041 381.16 119.93C380.578 119.773 379.91 119.601 379.111 119.455C374.723 118.664 370.213 118.882 365.922 120.091C362.952 120.905 360.097 122.091 357.424 123.62C355.923 124.453 354.476 125.378 353.089 126.389C351.628 127.487 350.255 128.7 348.984 130.014C343.242 135.946 339.747 143.692 339.098 151.922L339.335 151.678C334.436 152.162 329.69 153.651 325.392 156.052C321.095 158.453 317.339 161.715 314.358 165.633C312.069 168.613 310.307 171.964 309.149 175.539C308.126 178.644 307.546 181.878 307.423 185.145C307.216 189.874 307.962 194.596 309.617 199.03C309.862 199.727 310.144 200.41 310.461 201.077C310.669 201.579 310.905 202.068 311.169 202.543C311.373 202.908 311.529 203.197 311.644 203.417C311.727 203.525 311.82 203.626 311.92 203.719Z" fill="#263238"/>
<path d="M300.174 209.34C300.273 209.328 300.182 208.436 300.431 207.045C300.582 206.237 300.82 205.448 301.142 204.692C301.547 203.77 302.061 202.899 302.671 202.099C303.309 201.316 304.037 200.611 304.841 199.999C305.502 199.509 306.216 199.094 306.968 198.761C308.267 198.198 309.152 198.08 309.136 197.989C309.12 197.897 308.909 197.959 308.501 197.999C307.929 198.072 307.368 198.215 306.83 198.423C306.022 198.715 305.258 199.115 304.557 199.611C302.822 200.835 301.477 202.534 300.683 204.503C300.362 205.302 300.15 206.141 300.052 206.996C299.972 207.569 299.967 208.149 300.036 208.723C300.098 209.132 300.146 209.347 300.174 209.34Z" fill="#263238"/>
<path d="M310.383 233.657C310.383 233.657 310.431 233.022 310.648 231.903C310.957 230.312 311.58 228.798 312.48 227.451C313.82 225.416 315.779 223.867 318.067 223.032C320.919 221.999 324.059 222.095 326.843 223.301L327.231 223.472L327.206 223.061C327.156 221.69 327.261 220.318 327.52 218.971C328.186 215.503 329.815 212.294 332.222 209.71C334.22 207.628 336.675 206.041 339.393 205.073C341.227 204.419 343.149 204.044 345.093 203.96C346.473 203.911 347.242 203.991 347.236 203.941C347.057 203.886 346.872 203.855 346.685 203.849C346.154 203.784 345.62 203.753 345.085 203.757C342.621 203.769 340.184 204.273 337.916 205.239C335.649 206.204 333.597 207.612 331.88 209.38C330.143 211.201 328.788 213.352 327.897 215.706C327.006 218.06 326.596 220.569 326.691 223.084L327.059 222.835C324.149 221.567 320.861 221.479 317.886 222.588C315.522 223.479 313.514 225.117 312.166 227.253C311.271 228.649 310.68 230.218 310.431 231.857C310.365 232.297 310.332 232.741 310.334 233.186C310.328 233.345 310.344 233.503 310.383 233.657Z" fill="#263238"/>
<path d="M237.466 241.022C237.579 241.269 237.711 241.507 237.862 241.733C238.146 242.18 238.549 242.86 239.117 243.695C240.756 246.035 242.608 248.218 244.649 250.218C247.686 253.161 251.055 255.742 254.689 257.907C256.834 259.192 259.052 260.352 261.331 261.38C263.774 262.496 266.278 263.474 268.83 264.309C277.791 267.287 287.196 268.71 296.637 268.516C299.493 268.46 302.339 268.15 305.14 267.587C306.123 267.363 306.887 267.173 307.393 267.005C307.656 266.938 307.913 266.848 308.159 266.734C307.889 266.771 307.622 266.828 307.36 266.904C306.846 267.044 306.085 267.189 305.095 267.386C302.299 267.87 299.468 268.125 296.631 268.151C287.249 268.236 277.918 266.773 269.012 263.822C266.478 262.996 263.991 262.028 261.565 260.923C259.296 259.913 257.087 258.77 254.951 257.502C251.324 255.37 247.949 252.837 244.888 249.951C242.857 247.992 240.992 245.868 239.312 243.601C238.716 242.795 238.302 242.132 238.006 241.666C237.844 241.437 237.663 241.221 237.466 241.022Z" fill="#263238"/>
<path d="M252.711 217.787C252.781 218.241 252.912 218.683 253.102 219.101C253.511 220.252 254.026 221.363 254.64 222.419C256.655 225.952 259.611 228.856 263.179 230.807C266.747 232.758 270.787 233.68 274.849 233.469C276.065 233.416 277.273 233.251 278.459 232.976C278.903 232.894 279.335 232.758 279.747 232.571C278.122 232.836 276.483 233.01 274.839 233.091C270.861 233.198 266.926 232.249 263.435 230.34C259.944 228.432 257.021 225.632 254.964 222.226C254.119 220.796 253.366 219.314 252.711 217.787Z" fill="#263238"/>
<path d="M248.198 172.424C250.277 176.635 251.5 181.216 251.797 185.903C251.834 186.57 251.661 187.231 251.301 187.794C250.942 188.356 250.414 188.792 249.794 189.038C249.173 189.284 248.491 189.329 247.843 189.166C247.196 189.003 246.616 188.64 246.186 188.129L246.117 188.088C246.813 193.788 247.13 199.528 247.067 205.27C247.065 206.078 246.813 206.865 246.347 207.524C245.88 208.183 245.221 208.681 244.46 208.951C243.699 209.221 242.873 209.248 242.095 209.03C241.318 208.812 240.627 208.358 240.117 207.732C230.891 196.504 226.05 182.31 226.494 167.785L248.198 172.424Z" fill="#029491"/>
<g opacity="0.3">
<path d="M245.678 177.648C246.073 178.346 246.324 179.116 246.417 179.912C246.459 180.31 246.385 180.711 246.204 181.067C246.023 181.424 245.742 181.72 245.396 181.92C244.308 182.443 242.924 181.569 241.853 182.161C240.782 182.753 240.858 184.382 241.142 185.621L242.058 189.539C242.284 190.5 242.426 191.701 241.608 192.279C240.79 192.857 239.49 192.277 238.685 191.546C236.82 189.824 235.4 187.676 234.547 185.284C233.695 182.893 233.435 180.33 233.791 177.816L245.678 177.648Z" fill="black"/>
</g>
<path d="M246.651 223.068C247.425 223.563 247.974 224.341 248.179 225.235C248.385 226.13 248.231 227.07 247.751 227.852C247.271 228.634 246.502 229.197 245.611 229.418C244.721 229.64 243.778 229.503 242.988 229.037C242.197 228.571 241.621 227.813 241.383 226.926C241.146 226.039 241.266 225.095 241.718 224.296C242.17 223.497 242.917 222.907 243.8 222.654C244.682 222.4 245.628 222.504 246.435 222.941" fill="#029491"/>
<path d="M236.036 2.64008C241.268 2.43932 251.385 15.5901 261.158 37.8219C266.937 50.9292 270.584 64.8764 271.96 79.1352L275.63 176.28L250.039 177.247L235.191 177.814L209.6 178.78L206.272 90.6195C205.94 81.995 206.436 73.3586 207.753 64.8288C209.033 56.2805 211 47.8491 213.634 39.6166C221.165 16.6237 230.809 2.83219 236.036 2.64008Z" fill="#F5F5F5"/>
<path d="M207.321 117.868L207.082 118.076C200.153 124.084 194.662 131.573 191.016 139.989C187.369 148.405 185.661 157.532 186.016 166.697L186.458 178.338L208.965 161.4L207.321 117.868Z" fill="#029491"/>
<path d="M207.321 117.867L207.328 118.093L207.343 118.719L207.439 121.105L207.702 130.125L208.794 161.392L208.865 161.271L188.387 176.725L186.355 178.196L186.614 178.348L186.346 171.492C186.277 169.238 186.143 167.016 186.153 164.844C186.121 160.664 186.511 156.492 187.32 152.392C188.043 148.685 189.121 145.057 190.538 141.557C191.157 139.895 191.936 138.374 192.62 136.878C193.304 135.383 194.095 134.02 194.911 132.754C197.343 128.691 200.242 124.927 203.55 121.538C204.688 120.299 205.69 119.469 206.305 118.841L207.282 117.914L207.015 118.13L206.278 118.708C205.634 119.307 204.614 120.127 203.459 121.357C200.097 124.728 197.155 128.492 194.695 132.568C193.87 133.829 193.125 135.231 192.376 136.7C191.627 138.168 190.899 139.72 190.266 141.385C188.83 144.901 187.735 148.546 186.995 152.27C186.176 156.392 185.776 160.586 185.802 164.788C185.789 166.982 185.92 169.191 185.998 171.45L186.274 178.334L186.287 178.668L186.557 178.466L188.588 176.996L209.098 161.548L209.139 161.479L209.174 161.419L207.885 130.012L207.506 121.052L207.41 118.665C207.396 118.412 207.396 118.214 207.379 118.065L207.321 117.867Z" fill="#263238"/>
<path d="M273.355 115.381C273.355 115.381 273.485 115.458 273.623 115.539C280.883 120.934 286.838 127.891 291.049 135.895C295.26 143.9 297.62 152.748 297.954 161.787L298.392 173.274L274.982 158.31L273.355 115.381Z" fill="#029491"/>
<path d="M273.355 115.381L273.351 115.565L273.373 116.161L273.426 118.522L273.723 127.364L274.799 158.342L274.807 158.428L274.867 158.464C281.436 162.674 288.639 167.292 296.19 172.128C296.916 172.556 297.612 173.036 298.262 173.454L298.547 173.622L298.535 173.289L298.282 166.524C298.184 164.299 298.146 162.11 297.971 159.957C297.687 155.819 296.98 151.722 295.861 147.728C294.861 144.125 293.513 140.627 291.837 137.284C291.102 135.685 290.207 134.238 289.415 132.816C288.623 131.394 287.735 130.113 286.812 128.952C284.106 125.128 280.952 121.642 277.417 118.568C276.185 117.457 275.129 116.718 274.447 116.177C274.109 115.919 273.853 115.722 273.644 115.563C273.434 115.405 273.358 115.395 273.358 115.395C273.523 115.492 273.793 115.744 274.38 116.23C274.967 116.716 276.098 117.546 277.311 118.669C280.82 121.764 283.956 125.258 286.655 129.08C287.548 130.271 288.333 131.608 289.24 132.934C290.147 134.261 290.896 135.797 291.628 137.382C293.282 140.718 294.612 144.205 295.6 147.796C296.701 151.77 297.397 155.845 297.679 159.959C297.842 162.094 297.874 164.291 297.972 166.516L298.225 173.281L298.492 173.124C297.826 172.731 297.126 172.26 296.429 171.803C288.872 166.975 281.656 162.361 275.082 158.159L275.158 158.286L273.906 127.448L273.526 118.569L273.43 116.183L273.396 115.569L273.355 115.381Z" fill="#263238"/>
<path d="M236.035 2.64123C240.074 2.33101 247.058 10.3035 254.521 24.1616L217.784 28.0512C224.151 13.435 230.858 3.02571 236.035 2.64123Z" fill="#029491"/>
<path d="M209.692 162.934C209.703 163.034 224.34 162.646 242.388 162.067C260.435 161.488 275.078 160.952 275.067 160.852C275.056 160.753 260.477 161.14 242.38 161.724C224.283 162.309 209.689 162.839 209.692 162.934Z" fill="#263238"/>
<path d="M210.105 165.869C210.064 165.938 224.745 165.576 242.792 164.997C260.839 164.418 275.483 163.882 275.472 163.782C275.461 163.683 260.84 164.08 242.784 164.655C224.729 165.229 210.094 165.769 210.105 165.869Z" fill="#263238"/>
<path d="M210.159 168.976C210.171 169.076 224.808 168.688 242.856 168.109C260.903 167.53 275.546 166.994 275.535 166.894C275.524 166.795 260.904 167.192 242.848 167.767C224.792 168.341 210.157 168.881 210.159 168.976Z" fill="#263238"/>
<path d="M210.224 172.09C210.235 172.189 224.878 171.793 242.92 171.223C260.962 170.652 275.623 170.068 275.579 170.043C275.536 170.017 260.948 170.341 242.892 170.915C224.836 171.489 210.227 171.986 210.224 172.09Z" fill="#263238"/>
<path d="M210.267 175.179C210.226 175.249 224.907 174.887 242.963 174.312C261.019 173.738 275.645 173.192 275.642 173.098C275.64 173.003 261.011 173.396 242.955 173.97C224.899 174.544 210.308 175.11 210.267 175.179Z" fill="#263238"/>
<path d="M240.219 116.7C240.219 116.7 240.142 116.83 240.16 117.155C240.178 117.48 240.14 117.9 240.128 118.475C240.119 119.635 240.163 121.28 240.229 123.322C240.347 127.411 240.582 133.059 240.88 139.292C241.178 145.525 241.476 151.164 241.711 155.251L242.016 160.09L242.119 161.397C242.116 161.551 242.136 161.703 242.177 161.851C242.191 161.697 242.193 161.542 242.182 161.388L242.152 160.077L241.956 155.232L241.203 139.296L240.453 123.338L240.226 118.545C240.211 117.977 240.175 117.525 240.187 117.229L240.219 116.7Z" fill="#263238"/>
<path d="M207.322 117.867C207.333 117.967 221.994 117.5 240.062 116.828C258.129 116.156 272.796 115.541 272.793 115.446C272.791 115.351 258.13 115.818 240.054 116.485C221.978 117.153 207.32 117.773 207.322 117.867Z" fill="#263238"/>
<path d="M236.129 148.931C236.016 148.808 235.868 148.721 235.705 148.681C235.274 148.507 234.795 148.488 234.351 148.628C234.011 148.721 233.701 148.902 233.453 149.153C233.205 149.403 233.028 149.715 232.938 150.056C232.807 150.481 232.813 150.937 232.954 151.359C233.096 151.781 233.366 152.148 233.727 152.408C234.088 152.668 234.521 152.809 234.966 152.81C235.411 152.811 235.846 152.673 236.208 152.414C236.504 152.222 236.745 151.956 236.906 151.642C237.066 151.327 237.141 150.976 237.123 150.624C237.121 150.171 236.971 149.731 236.697 149.371C236.489 149.131 236.314 149.052 236.304 149.069C236.294 149.087 236.425 149.199 236.587 149.458C236.817 149.811 236.935 150.225 236.924 150.646C236.92 150.951 236.837 151.249 236.682 151.511C236.527 151.773 236.307 151.991 236.042 152.142C235.732 152.346 235.368 152.451 234.997 152.443C234.626 152.434 234.266 152.314 233.966 152.096C233.665 151.878 233.438 151.574 233.315 151.225C233.191 150.875 233.177 150.495 233.275 150.137C233.343 149.843 233.486 149.571 233.691 149.349C233.895 149.126 234.154 148.961 234.442 148.869C234.829 148.723 235.25 148.696 235.653 148.79C235.967 148.87 236.114 148.957 236.129 148.931Z" fill="#263238"/>
<path d="M235.072 130.172C235.072 130.172 234.961 130.025 234.649 129.922C234.217 129.748 233.738 129.729 233.294 129.869C232.954 129.962 232.644 130.143 232.396 130.394C232.148 130.644 231.971 130.956 231.882 131.297C231.75 131.722 231.756 132.178 231.897 132.6C232.039 133.022 232.309 133.389 232.67 133.649C233.031 133.909 233.464 134.05 233.909 134.051C234.355 134.052 234.789 133.914 235.151 133.655C235.447 133.463 235.688 133.197 235.849 132.883C236.01 132.568 236.085 132.217 236.066 131.865C236.058 131.415 235.907 130.979 235.635 130.62C235.534 130.486 235.4 130.379 235.247 130.31C235.247 130.31 235.363 130.449 235.526 130.707C235.755 131.06 235.873 131.475 235.862 131.896C235.859 132.199 235.777 132.495 235.623 132.756C235.469 133.017 235.249 133.233 234.985 133.383C234.676 133.587 234.312 133.693 233.941 133.686C233.571 133.679 233.211 133.559 232.91 133.342C232.609 133.126 232.381 132.823 232.257 132.473C232.132 132.124 232.117 131.745 232.213 131.387C232.282 131.091 232.426 130.818 232.631 130.594C232.837 130.371 233.096 130.204 233.385 130.11C233.772 129.97 234.191 129.946 234.591 130.04C234.91 130.111 235.057 130.198 235.072 130.172Z" fill="#263238"/>
<path d="M244.096 100.557C243.978 100.44 243.832 100.354 243.672 100.308C243.239 100.141 242.763 100.122 242.318 100.254C241.966 100.347 241.645 100.533 241.391 100.794C241.137 101.055 240.959 101.379 240.875 101.734C240.745 102.159 240.752 102.615 240.894 103.036C241.037 103.457 241.308 103.823 241.669 104.083C242.031 104.342 242.464 104.482 242.909 104.482C243.354 104.482 243.788 104.342 244.149 104.083C244.446 103.892 244.687 103.625 244.847 103.311C245.008 102.997 245.083 102.646 245.065 102.293C245.061 101.842 244.91 101.405 244.633 101.049C244.421 100.796 244.256 100.721 244.245 100.738C244.332 100.873 244.427 101.003 244.529 101.127C244.752 101.483 244.869 101.895 244.865 102.315C244.86 102.619 244.775 102.917 244.621 103.179C244.466 103.441 244.247 103.659 243.984 103.811C243.665 103.991 243.304 104.081 242.938 104.071C242.573 104.061 242.217 103.951 241.909 103.753C241.621 103.524 241.403 103.218 241.282 102.871C241.161 102.523 241.142 102.148 241.226 101.789C241.294 101.495 241.438 101.223 241.642 101.001C241.847 100.778 242.106 100.613 242.394 100.521C242.781 100.375 243.202 100.348 243.605 100.442C243.934 100.496 244.081 100.583 244.096 100.557Z" fill="#263238"/>
<path d="M248.063 87.3449C247.972 87.3611 247.781 93.911 247.602 101.96C247.424 110.009 247.439 116.564 247.538 116.553C247.638 116.542 247.821 109.987 248 101.938C248.178 93.889 248.184 87.3577 248.063 87.3449Z" fill="#263238"/>
<g opacity="0.3">
<path d="M274.929 157.195C274.929 157.195 273.212 129.042 273.355 115.381C276.321 121.87 279.654 129.298 280.51 136.384C281.311 143.774 279.32 151.197 274.929 157.195Z" fill="black"/>
</g>
<path d="M234.224 89.0672C223.626 86.3959 217.201 75.6393 219.872 65.0418C222.543 54.4442 233.3 48.0188 243.897 50.6902C254.495 53.3615 260.92 64.1181 258.249 74.7156C255.578 85.3131 244.821 91.7386 234.224 89.0672Z" fill="white"/>
<path d="M230.001 87.4959C229.915 87.4307 229.822 87.376 229.724 87.3329C229.516 87.2106 229.248 87.0526 228.911 86.8539C228.467 86.6032 228.043 86.3182 227.643 86.0015C227.074 85.6048 226.533 85.1691 226.024 84.6975C224.606 83.4331 223.382 81.9661 222.393 80.3441C221.076 78.2005 220.179 75.8255 219.75 73.3463C219.188 70.1228 219.444 66.8096 220.495 63.7107C221.546 60.6119 223.359 57.8268 225.767 55.6109C227.138 54.3207 228.701 53.2498 230.399 52.4357C231.271 52.0102 232.17 51.641 233.089 51.3305C234.032 51.06 234.99 50.8468 235.958 50.6921C240.065 50.0294 244.277 50.7 247.975 52.6054C251.673 54.5108 254.664 57.5509 256.508 61.28C256.947 62.148 257.33 63.0429 257.655 63.9593C257.94 64.8876 258.16 65.8348 258.314 66.7938C258.639 68.6509 258.676 70.547 258.425 72.4155C257.982 75.8701 256.63 79.1452 254.507 81.9064C252.801 84.1022 250.649 85.9121 248.194 87.217C245.738 88.522 243.034 89.2925 240.259 89.4779C238.365 89.6166 236.46 89.4713 234.608 89.0469C233.929 88.9049 233.259 88.7204 232.604 88.4945C232.114 88.3525 231.636 88.1721 231.174 87.9549C230.82 87.8045 230.532 87.6811 230.304 87.5934C230.21 87.5454 230.109 87.5098 230.006 87.4873C230.093 87.5492 230.186 87.6037 230.282 87.6504C230.49 87.7727 230.783 87.8874 231.127 88.0551C231.583 88.2924 232.058 88.4908 232.548 88.6481C233.195 88.8894 233.858 89.0855 234.532 89.235C236.396 89.7245 238.326 89.9186 240.25 89.8101C243.079 89.6543 245.842 88.8968 248.356 87.588C250.869 86.2792 253.073 84.4494 254.823 82.2206C257.025 79.3967 258.432 76.035 258.897 72.4841C259.161 70.569 259.128 68.6247 258.8 66.7195C258.506 64.7213 257.89 62.7842 256.974 60.9838C256.054 59.1087 254.839 57.3936 253.376 55.9038C251.861 54.3757 250.122 53.0875 248.219 52.0837C244.425 50.1427 240.111 49.4602 235.902 50.1349C234.898 50.2907 233.906 50.5199 232.935 50.8206C231.994 51.1416 231.074 51.5213 230.18 51.9572C228.445 52.7985 226.849 53.9003 225.447 55.2244C222.826 57.6626 220.906 60.7573 219.884 64.1877C219.084 66.9075 218.872 69.7666 219.264 72.5745C219.655 75.3824 220.641 78.0745 222.155 80.4715C223.171 82.1101 224.431 83.5838 225.892 84.8414C226.411 85.3154 226.968 85.7452 227.558 86.1261C227.967 86.4358 228.401 86.711 228.855 86.9489C229.192 87.1477 229.46 87.3057 229.668 87.428C229.775 87.4646 229.887 87.4874 230.001 87.4959Z" fill="#263238"/>
<path d="M236.036 2.64029C235.959 2.6412 235.882 2.64638 235.805 2.65584C235.574 2.66659 235.346 2.70832 235.126 2.77988C234.259 3.05432 233.449 3.48461 232.735 4.04965C230.05 6.30723 227.761 8.99653 225.96 12.007C222.987 16.714 220.416 21.6632 218.275 26.8021C215.372 33.6253 212.961 40.6476 211.061 47.8151C210.022 51.8159 209.084 56.0426 208.246 60.4951C207.382 65.1388 206.755 69.8235 206.367 74.5308C205.965 79.589 205.842 84.6655 206 89.7371L206.592 105.905L209.327 178.748L209.336 179.01L209.598 179.001C220.193 178.595 231.297 178.174 242.608 177.759C253.918 177.345 265.024 176.902 275.628 176.501L275.884 176.501L275.875 176.239L273.133 103.369L272.505 87.2027L272.19 79.5157C272.038 76.968 271.665 74.4772 271.349 72.0306C269.916 63.0893 267.642 54.3034 264.556 45.7898C261.935 38.8467 258.87 32.0791 255.381 25.5291C252.825 20.587 249.9 15.8451 246.631 11.3437C244.65 8.4614 242.214 5.92 239.418 3.81869C238.673 3.29746 237.837 2.91937 236.953 2.70371C236.727 2.65071 236.494 2.62706 236.261 2.63336C236.183 2.6259 236.105 2.62652 236.027 2.63519C236.334 2.64133 236.639 2.6805 236.937 2.75203C237.806 2.9859 238.627 3.3748 239.358 3.90003C242.141 6.02881 244.564 8.58979 246.536 11.4855C249.77 15.9982 252.664 20.7452 255.194 25.6871C258.631 32.2353 261.65 38.9948 264.232 45.9248C267.284 54.4228 269.526 63.19 270.929 72.1096C271.294 74.5145 271.635 76.9987 271.777 79.5051L272.062 87.2217L272.668 103.386L275.38 176.25L275.632 175.979L242.617 177.229L209.607 178.471L209.878 178.723L207.098 105.877L206.492 89.7127C206.324 84.6573 206.434 79.5965 206.82 74.5531C207.197 69.6849 207.861 65.0209 208.654 60.5728C209.447 56.1247 210.361 51.8873 211.397 47.8968C213.27 40.7417 215.652 33.7295 218.524 26.9138C220.628 21.7757 223.158 16.8225 226.088 12.1058C227.866 9.10045 230.123 6.40585 232.77 4.12855C233.47 3.55962 234.263 3.11669 235.115 2.81955C235.417 2.73724 235.725 2.67733 236.036 2.64029Z" fill="#263238"/>
<path d="M328.829 261.981H154.554C149.09 261.981 143.85 259.81 139.986 255.946C136.123 252.083 133.952 246.843 133.952 241.379C133.952 235.915 136.123 230.675 139.986 226.811C143.85 222.948 149.09 220.777 154.554 220.777H328.829C334.293 220.777 339.533 222.948 343.397 226.811C347.26 230.675 349.431 235.915 349.431 241.379C349.431 246.843 347.26 252.083 343.397 255.946C339.533 259.81 334.293 261.981 328.829 261.981Z" fill="white"/>
<path d="M328.828 261.98L330.052 261.89C330.557 261.881 331.061 261.831 331.558 261.739C332.251 261.653 332.938 261.522 333.615 261.348L334.839 261.027C335.261 260.886 335.692 260.716 336.154 260.545L336.856 260.284L337.569 259.933C338.077 259.709 338.57 259.451 339.044 259.16C341.361 257.827 343.39 256.046 345.014 253.922C345.499 253.317 345.939 252.676 346.329 252.006C346.759 251.315 347.138 250.594 347.463 249.848C347.814 249.07 348.123 248.272 348.386 247.46C348.497 247.038 348.607 246.617 348.717 246.175L348.888 245.523L348.988 244.851L349.199 243.476L349.259 242.071V241.349V240.626C349.259 240.134 349.259 239.623 349.169 239.151C348.921 237.105 348.383 235.105 347.573 233.21C345.713 229.015 342.516 225.554 338.482 223.366C336.296 222.198 333.916 221.44 331.457 221.128C328.929 220.847 326.269 220.988 323.57 220.958L154.593 221.038C152.555 221.066 150.53 221.366 148.572 221.931C146.649 222.553 144.819 223.435 143.133 224.55C141.493 225.683 140.014 227.033 138.738 228.564C137.498 230.123 136.484 231.849 135.727 233.692C134.996 235.531 134.524 237.463 134.322 239.432C134.161 241.387 134.262 243.354 134.623 245.282C135.379 249.107 137.222 252.633 139.932 255.438C142.588 258.201 145.974 260.153 149.696 261.067C150.607 261.294 151.532 261.462 152.465 261.569C153.409 261.569 154.332 261.699 155.285 261.679H182.881L258.855 261.739L310.033 261.82L323.961 261.87H327.584H328.818H327.584H323.961H310.033L258.855 261.96L182.881 262.01H155.285C154.342 262.01 153.369 261.94 152.415 261.9C151.459 261.79 150.51 261.619 149.575 261.388C145.752 260.459 142.271 258.462 139.541 255.628C138.168 254.196 137 252.582 136.068 250.832C135.148 249.058 134.473 247.167 134.061 245.212C133.694 243.227 133.592 241.203 133.76 239.191C134.142 235.111 135.716 231.234 138.286 228.042C140.893 224.805 144.409 222.421 148.381 221.199C150.381 220.615 152.45 220.304 154.533 220.275L323.51 220.346C326.209 220.346 328.848 220.245 331.437 220.546C333.951 220.856 336.384 221.631 338.612 222.834C342.705 225.069 345.942 228.598 347.814 232.869C348.631 234.79 349.168 236.817 349.41 238.89C349.46 239.392 349.46 239.894 349.49 240.385V241.118V241.84C349.49 242.322 349.44 242.844 349.42 243.275C349.4 243.707 349.269 244.209 349.199 244.66L349.099 245.342L348.928 246.005C348.808 246.446 348.697 246.878 348.587 247.299C348.256 248.122 348.035 248.965 347.644 249.718C347.306 250.469 346.917 251.197 346.48 251.895C346.08 252.565 345.634 253.205 345.145 253.812C343.505 255.945 341.459 257.733 339.124 259.07C338.64 259.352 338.141 259.607 337.629 259.833L336.906 260.174L336.204 260.435C335.732 260.606 335.301 260.776 334.869 260.907L333.645 261.218C332.962 261.39 332.268 261.514 331.568 261.589C331.07 261.669 330.567 261.713 330.062 261.719L328.828 261.98Z" fill="#263238"/>
<path d="M327.414 245.562C330.995 241.98 330.995 236.173 327.413 232.591C323.832 229.009 318.024 229.009 314.443 232.591C310.861 236.173 310.861 241.98 314.443 245.562C318.024 249.143 323.832 249.143 327.414 245.562Z" fill="white"/>
<path d="M320.921 249.918C319.007 249.92 317.135 249.354 315.543 248.292C313.95 247.23 312.709 245.719 311.976 243.951C311.242 242.183 311.05 240.237 311.423 238.36C311.796 236.482 312.717 234.758 314.071 233.404C315.424 232.051 317.149 231.129 319.026 230.756C320.904 230.383 322.849 230.576 324.618 231.309C326.386 232.043 327.896 233.284 328.958 234.877C330.021 236.469 330.587 238.341 330.585 240.255C330.582 242.817 329.563 245.273 327.751 247.085C325.939 248.897 323.483 249.916 320.921 249.918ZM320.921 231.585C319.206 231.583 317.528 232.089 316.101 233.041C314.674 233.992 313.561 235.346 312.904 236.93C312.246 238.514 312.073 240.257 312.406 241.94C312.74 243.622 313.565 245.168 314.777 246.382C315.989 247.595 317.534 248.422 319.216 248.757C320.898 249.093 322.642 248.922 324.227 248.266C325.811 247.61 327.166 246.499 328.119 245.073C329.072 243.647 329.581 241.97 329.581 240.255C329.581 237.957 328.669 235.753 327.045 234.128C325.421 232.502 323.219 231.587 320.921 231.585Z" fill="#263238"/>
<path d="M328.585 245.251L328.049 246.1L335.813 251.002L336.348 250.153L328.585 245.251Z" fill="#263238"/>
<path d="M65.7062 438.834L66.3184 468.016L27.9049 468.919C28.0353 465.447 47.7238 458.011 47.7238 458.011L46.5196 439.336L65.7062 438.834Z" fill="#455A64"/>
<g opacity="0.6">
<path d="M59.5636 456.165C59.9256 456.251 60.2419 456.47 60.4501 456.779C60.6582 457.087 60.743 457.462 60.6875 457.83C60.586 458.195 60.351 458.508 60.0293 458.706C59.7076 458.905 59.3228 458.976 58.9515 458.904C58.7508 458.877 58.5582 458.808 58.3867 458.7C58.2152 458.593 58.0688 458.45 57.9573 458.281C57.8458 458.112 57.7718 457.921 57.7405 457.721C57.7091 457.521 57.721 457.317 57.7753 457.122C57.8297 456.927 57.9253 456.746 58.0556 456.591C58.1859 456.436 58.348 456.311 58.5308 456.224C58.7137 456.137 58.913 456.09 59.1154 456.087C59.3178 456.084 59.5186 456.124 59.7041 456.205" fill="white"/>
</g>
<g opacity="0.6">
<path d="M66.3184 468.016L66.1277 465.075L29.37 467.082C29.37 467.082 27.6841 467.825 27.9049 468.959L66.3184 468.016Z" fill="white"/>
</g>
<path d="M47.101 457.84C47.101 458.021 48.0443 458.081 48.9876 458.633C49.9309 459.185 50.4326 459.908 50.6032 459.837C50.7738 459.767 50.4728 458.744 49.3188 458.101C48.1648 457.459 47.0509 457.68 47.101 457.84Z" fill="#263238"/>
<path d="M43.1069 459.516C43.1069 459.687 43.8896 459.968 44.5519 460.701C45.2142 461.433 45.4149 462.226 45.5554 462.216C45.6959 462.206 45.8363 461.212 45.0034 460.299C44.1706 459.386 43.1069 459.346 43.1069 459.516Z" fill="#263238"/>
<path d="M40.9394 464.122C41.11 464.122 41.3508 463.269 40.8491 462.306C40.3474 461.343 39.4543 460.982 39.374 461.132C39.2937 461.283 39.8557 461.784 40.257 462.577C40.6584 463.37 40.7588 464.112 40.9394 464.122Z" fill="#263238"/>
<path d="M47.3415 453.556C47.4218 453.716 48.2848 453.455 49.3485 453.496C50.4122 453.536 51.2451 453.837 51.3554 453.686C51.4658 453.536 50.6329 452.914 49.3485 452.883C48.064 452.853 47.2311 453.425 47.3415 453.556Z" fill="#263238"/>
<path d="M48.1245 449.23C48.7604 449.379 49.4238 449.362 50.0512 449.18C50.7421 449.047 51.4155 448.835 52.0581 448.548C52.4316 448.378 52.7936 448.183 53.1419 447.966C53.3539 447.849 53.5468 447.7 53.7139 447.525C53.8337 447.4 53.9055 447.237 53.9165 447.064C53.9275 446.891 53.8771 446.72 53.7741 446.581C53.6766 446.454 53.5501 446.353 53.4052 446.284C53.2603 446.216 53.1012 446.184 52.9412 446.19C52.7 446.196 52.4605 446.233 52.2287 446.3C51.8188 446.405 51.4191 446.546 51.0346 446.722C50.399 447.009 49.8131 447.395 49.2986 447.866C48.4255 448.658 48.1345 449.331 48.2048 449.361C48.275 449.391 48.7065 448.859 49.5996 448.187C50.1205 447.801 50.6867 447.481 51.2855 447.234C51.6451 447.095 52.0139 446.981 52.3893 446.892C52.7907 446.782 53.1319 446.772 53.2423 446.892C53.3526 447.013 53.2423 446.983 53.2423 447.103C53.1207 447.229 52.9822 447.337 52.8308 447.424C52.5061 447.632 52.1712 447.822 51.8273 447.996C51.2366 448.293 50.6182 448.532 49.9809 448.709C49.3501 448.837 48.7296 449.011 48.1245 449.23Z" fill="#263238"/>
<path d="M48.3466 449.481C48.6935 448.961 48.856 448.339 48.8082 447.715C48.8291 447.033 48.7236 446.352 48.4971 445.708C48.3604 445.327 48.1856 444.961 47.9753 444.615C47.8571 444.373 47.6804 444.165 47.4614 444.009C47.2423 443.853 46.9879 443.754 46.721 443.721C46.5529 443.729 46.3902 443.783 46.2505 443.877C46.1108 443.971 45.9993 444.101 45.9282 444.253C45.8339 444.466 45.7762 444.693 45.7576 444.926C45.6919 445.331 45.6919 445.744 45.7576 446.15C45.8859 446.831 46.1826 447.469 46.6206 448.006C47.4033 448.93 48.1861 449.12 48.2061 449.06C48.2262 449 47.604 448.649 47.002 447.755C46.6609 447.246 46.438 446.666 46.3497 446.06C46.2946 445.71 46.2946 445.355 46.3497 445.006C46.3497 444.625 46.5403 444.303 46.6909 444.344C46.8414 444.384 47.2227 444.615 47.3833 444.926C47.5814 445.244 47.7494 445.58 47.885 445.929C48.1164 446.506 48.2586 447.115 48.3065 447.735C48.457 448.789 48.2764 449.451 48.3466 449.481Z" fill="#263238"/>
<path d="M94.817 441.263L98.5199 470.213L136.652 465.477C136.01 462.065 115.449 457.6 115.449 457.6L113.903 438.945L94.817 441.263Z" fill="#455A64"/>
<g opacity="0.6">
<path d="M103.427 457.499C103.08 457.637 102.797 457.9 102.635 458.237C102.473 458.573 102.444 458.959 102.554 459.316C102.71 459.659 102.99 459.932 103.337 460.08C103.684 460.229 104.074 460.243 104.43 460.119C104.799 459.974 105.099 459.694 105.269 459.336C105.439 458.978 105.465 458.569 105.344 458.192C105.143 457.861 104.828 457.614 104.459 457.498C104.09 457.382 103.691 457.404 103.337 457.56" fill="white"/>
</g>
<g opacity="0.6">
<path d="M98.5189 470.214L98.268 467.273L134.915 463.842C134.915 463.842 136.651 464.283 136.651 465.477L98.5189 470.214Z" fill="white"/>
</g>
<path d="M116.001 457.339C116.001 457.519 115.098 457.71 114.245 458.393C113.392 459.075 113 459.868 112.82 459.817C112.639 459.767 112.82 458.724 113.823 457.921C114.827 457.118 116.021 457.168 116.001 457.339Z" fill="#263238"/>
<path d="M120.186 458.402C120.256 458.573 119.484 458.974 118.942 459.797C118.4 460.62 118.309 461.423 118.129 461.443C117.948 461.463 117.697 460.44 118.39 459.436C119.082 458.433 120.166 458.262 120.186 458.402Z" fill="#263238"/>
<path d="M123.006 462.647C122.845 462.708 122.484 461.865 122.845 460.841C123.206 459.818 124.029 459.326 124.12 459.456C124.21 459.587 123.738 460.179 123.457 461.022C123.176 461.865 123.196 462.607 123.006 462.647Z" fill="#263238"/>
<path d="M115.149 453.134C115.088 453.304 114.205 453.134 113.142 453.365C112.078 453.595 111.315 453.977 111.205 453.836C111.095 453.696 111.797 452.973 113.031 452.753C114.266 452.532 115.229 452.983 115.149 453.134Z" fill="#263238"/>
<path d="M113.724 448.97C113.117 449.205 112.461 449.281 111.817 449.191C111.117 449.167 110.422 449.056 109.75 448.859C109.352 448.752 108.963 448.615 108.586 448.448C108.358 448.364 108.145 448.245 107.954 448.097C107.818 447.99 107.724 447.84 107.687 447.671C107.651 447.503 107.674 447.327 107.753 447.174C107.835 447.035 107.947 446.918 108.081 446.829C108.214 446.74 108.367 446.683 108.526 446.662C108.765 446.631 109.008 446.631 109.248 446.662C109.666 446.702 110.08 446.783 110.482 446.903C111.156 447.092 111.796 447.387 112.379 447.776C113.382 448.438 113.734 449.06 113.673 449.1C113.613 449.14 113.101 448.669 112.128 448.147C111.218 447.647 110.213 447.346 109.178 447.264C108.756 447.214 108.415 447.264 108.335 447.434C108.255 447.605 108.335 447.535 108.405 447.635C108.546 447.741 108.701 447.826 108.867 447.886C109.215 448.051 109.573 448.192 109.94 448.307C110.569 448.511 111.213 448.659 111.867 448.749C112.491 448.775 113.111 448.849 113.724 448.97Z" fill="#263238"/>
<path d="M113.512 449.231C113.093 448.764 112.843 448.171 112.8 447.545C112.68 446.881 112.68 446.202 112.8 445.538C112.873 445.141 112.991 444.754 113.151 444.384C113.23 444.128 113.373 443.896 113.566 443.71C113.759 443.524 113.996 443.39 114.255 443.32C114.422 443.301 114.591 443.329 114.743 443.4C114.895 443.47 115.025 443.582 115.118 443.722C115.237 443.923 115.328 444.139 115.389 444.364C115.507 444.757 115.558 445.168 115.539 445.578C115.526 446.287 115.325 446.979 114.957 447.585C114.325 448.589 113.573 448.92 113.542 448.86C113.512 448.799 114.084 448.358 114.546 447.394C114.806 446.839 114.94 446.232 114.937 445.618C114.935 445.278 114.881 444.939 114.777 444.615C114.676 444.233 114.486 443.942 114.335 444.003C114.185 444.063 113.864 444.354 113.743 444.675C113.595 444.999 113.474 445.335 113.382 445.678C113.248 446.284 113.197 446.905 113.231 447.525C113.332 448.579 113.573 449.231 113.512 449.231Z" fill="#263238"/>
<path d="M35.9138 283.967L95.7116 285.883C95.7116 285.883 109.811 379.99 109.419 386.543L118.109 454.78L92.8215 455.673C92.8215 455.673 88.8076 433.526 86.0681 418.374C84.2216 408.339 80.8499 393.507 79.9368 385.088C79.0236 376.669 64.2322 317.854 64.2322 317.854C64.2322 317.854 65.326 386.091 65.2959 388.901C65.2658 391.711 68.2261 455.593 68.2261 455.593H43.1389C41.8444 444.063 38.7637 397.922 38.1215 388.6C36.9173 371.762 33.104 324.196 32.5923 312.044C32.0805 299.892 35.9138 283.967 35.9138 283.967Z" fill="#263238"/>
<path d="M39.8565 284.428C40.1364 283.013 40.1364 281.558 39.8565 280.143C39.5622 281.556 39.5622 283.015 39.8565 284.428Z" fill="#455A64"/>
<path d="M37.3678 285.562C37.8439 283.757 37.6844 281.844 36.9163 280.143C36.9435 281.051 37.0306 281.956 37.1772 282.852C37.18 283.759 37.2437 284.664 37.3678 285.562Z" fill="#455A64"/>
<path d="M59.704 281.077C60.1894 281.176 60.6315 281.426 60.9684 281.789C61.1366 281.98 61.2606 282.206 61.3317 282.451C61.4028 282.695 61.4192 282.952 61.3798 283.204C61.2948 283.493 61.1317 283.752 60.9086 283.954C60.6855 284.156 60.4111 284.292 60.1154 284.348C59.8198 284.405 59.5144 284.378 59.2329 284.272C58.9514 284.165 58.7047 283.983 58.5199 283.746C58.3931 283.526 58.315 283.281 58.2908 283.028C58.2665 282.776 58.2968 282.521 58.3794 282.281C58.5554 281.815 58.8799 281.42 59.3026 281.157C59.3026 281.157 59.132 281.157 58.8812 281.267C58.5248 281.47 58.2486 281.789 58.0985 282.17C57.9729 282.454 57.9148 282.763 57.9287 283.073C57.9426 283.383 58.0282 283.685 58.1787 283.957C58.3998 284.275 58.7085 284.523 59.0675 284.67C59.4265 284.817 59.8204 284.857 60.2015 284.785C60.5827 284.713 60.9347 284.531 61.2151 284.263C61.4954 283.995 61.6921 283.652 61.7812 283.274C61.8223 282.966 61.7912 282.652 61.6901 282.358C61.5891 282.063 61.4211 281.796 61.1992 281.578C60.9159 281.281 60.5416 281.087 60.1355 281.026C59.8546 280.996 59.704 281.056 59.704 281.077Z" fill="#455A64"/>
<path d="M87.2711 384.927C89.4544 384.266 91.5929 383.465 93.6734 382.529C95.8113 381.729 97.8961 380.794 99.915 379.729C97.7296 380.394 95.588 381.195 93.5028 382.128C91.3692 382.93 89.2879 383.865 87.2711 384.927Z" fill="#455A64"/>
<path d="M90.4916 142.525C90.3009 139.043 88.1535 136.895 85.1531 135.119C83.6404 134.241 81.9381 133.742 80.191 133.663C78.4438 133.584 76.7036 133.929 75.1182 134.668C73.0109 135.671 71.1645 137.377 68.8564 137.678C65.0432 138.17 61.4407 134.668 57.7077 135.52C56.5939 135.788 55.6069 136.432 54.9146 137.344C54.2222 138.257 53.8671 139.381 53.9097 140.525C53.9522 141.67 54.3898 142.764 55.1481 143.623C55.9063 144.481 56.9384 145.051 58.069 145.234C55.5703 145.595 54.1654 148.756 55.0585 151.095C55.9516 153.433 58.5908 154.807 61.0794 154.858C63.6143 154.777 66.0785 154.003 68.2042 152.62C70.3817 151.356 72.4188 149.83 74.6967 148.746C76.9329 147.539 79.5233 147.159 82.0122 147.673C85.3136 148.546 87.6517 151.687 88.5047 154.958C89.3577 158.229 88.9964 161.752 88.5047 165.123C88.013 168.495 87.3407 171.897 87.6618 175.299C87.6594 175.492 87.7017 175.683 87.7852 175.857C87.8688 176.031 87.9914 176.183 88.1435 176.302C88.6452 176.583 89.2272 176.112 89.5985 175.67C93.8245 170.656 97.0228 164.859 99.0112 158.611C100.165 154.998 100.797 151.476 99.4226 147.944C98.0479 144.411 93.4017 141.05 90.4515 142.485" fill="#263238"/>
<path d="M93.7325 159.343L88.1631 193.733C87.1596 200.155 82.945 206.367 72.87 204.259C64.2601 201.771 64.9023 195.579 66.0262 187.943C66.0262 187.943 56.5533 185.484 57.4063 175.851C57.8077 171.194 59.4132 161.681 61.0088 153.092C61.8232 148.644 64.2825 144.665 67.8974 141.949C71.5123 139.232 76.0175 137.976 80.5166 138.431L81.4498 138.521C91.3944 140.157 95.599 149.449 93.7325 159.343Z" fill="#FFBE9D"/>
<path d="M66.0273 187.943C70.467 188.377 74.9381 187.531 78.9121 185.504C78.9121 185.504 75.139 192.649 65.636 190.823L66.0273 187.943Z" fill="#EB996E"/>
<path d="M62.8961 161.511C62.8562 161.868 62.9578 162.227 63.1791 162.51C63.4004 162.793 63.7239 162.979 64.0802 163.026C64.2532 163.059 64.4311 163.057 64.6032 163.019C64.7753 162.982 64.938 162.909 65.0815 162.807C65.225 162.705 65.3462 162.575 65.438 162.424C65.5298 162.274 65.5902 162.107 65.6155 161.932C65.6554 161.575 65.5538 161.216 65.3325 160.933C65.1112 160.65 64.7877 160.465 64.4314 160.417C64.2585 160.386 64.081 160.389 63.9095 160.427C63.738 160.465 63.5758 160.538 63.4327 160.64C63.2895 160.742 63.1683 160.871 63.0761 161.021C62.984 161.171 62.9227 161.337 62.8961 161.511Z" fill="#263238"/>
<path d="M62.5948 158.019C62.7454 158.22 63.8693 157.547 65.3444 157.708C66.8195 157.868 67.833 158.711 68.0137 158.541C68.1943 158.37 67.9535 158.129 67.522 157.738C66.9251 157.229 66.1856 156.917 65.4046 156.845C64.6359 156.76 63.8605 156.929 63.1969 157.326C62.7052 157.628 62.5246 157.929 62.5948 158.019Z" fill="#263238"/>
<path d="M76.3531 163.638C76.3132 163.996 76.4148 164.354 76.6361 164.637C76.8575 164.921 77.1809 165.106 77.5372 165.154C77.7102 165.187 77.8882 165.184 78.0603 165.147C78.2324 165.109 78.395 165.037 78.5385 164.935C78.682 164.832 78.8033 164.702 78.895 164.552C78.9868 164.402 79.0472 164.234 79.0726 164.06C79.1125 163.703 79.0109 163.344 78.7895 163.061C78.5682 162.777 78.2447 162.592 77.8884 162.545C77.7155 162.513 77.5381 162.516 77.3665 162.555C77.195 162.593 77.0328 162.665 76.8897 162.767C76.7466 162.869 76.6253 162.999 76.5332 163.148C76.441 163.298 76.3798 163.465 76.3531 163.638Z" fill="#263238"/>
<path d="M76.8155 159.755C76.9761 159.945 78.09 159.283 79.5651 159.434C81.0402 159.584 82.0537 160.437 82.2344 160.277C82.415 160.116 82.1742 159.865 81.7427 159.474C81.1458 158.965 80.4063 158.653 79.6253 158.581C78.858 158.5 78.0848 158.665 77.4176 159.052C76.9259 159.353 76.7453 159.665 76.8155 159.755Z" fill="#263238"/>
<path d="M70.6337 170.181C69.8805 169.852 69.0878 169.623 68.2755 169.499C67.9042 169.428 67.553 169.318 67.5129 169.047C67.5238 168.655 67.6494 168.275 67.8741 167.953C68.3257 167.08 68.7973 166.157 69.279 165.194C71.286 161.26 72.7009 158.009 72.5403 157.928C71.0816 160.167 69.7999 162.515 68.707 164.953L67.3423 167.743C67.0652 168.174 66.9447 168.688 67.0011 169.198C67.0404 169.338 67.1117 169.467 67.2091 169.575C67.3066 169.682 67.4277 169.766 67.563 169.82C67.768 169.892 67.9799 169.942 68.1952 169.97C68.9964 170.14 69.8153 170.211 70.6337 170.181Z" fill="#263238"/>
<path d="M77.2958 153.925C77.3961 154.346 78.8913 154.306 80.6073 154.687C82.3232 155.069 83.6779 155.691 83.9389 155.35C84.0593 155.179 83.8586 154.778 83.3267 154.346C82.6253 153.801 81.8101 153.42 80.9416 153.232C80.073 153.045 79.1733 153.055 78.3093 153.262C77.6069 153.443 77.2556 153.734 77.2958 153.925Z" fill="#263238"/>
<path d="M63.5683 153.794C63.7991 154.165 64.8528 153.914 66.0771 154.025C67.3013 154.135 68.3148 154.476 68.5858 154.145C68.7062 153.985 68.5858 153.633 68.1543 153.272C67.5868 152.836 66.9035 152.577 66.1896 152.527C65.4758 152.477 64.763 152.639 64.1403 152.991C63.6486 153.292 63.468 153.623 63.5683 153.794Z" fill="#263238"/>
<path d="M92.2373 166.388C92.4079 166.328 99.0409 165.094 98.1679 171.646C97.2949 178.199 90.8926 175.982 90.9127 175.791C90.9328 175.6 92.2373 166.388 92.2373 166.388Z" fill="#FFBE9D"/>
<path d="M93.2411 173.573C93.2411 173.573 93.3414 173.663 93.5221 173.784C93.7799 173.933 94.0844 173.979 94.375 173.914C94.8346 173.7 95.2291 173.369 95.5183 172.952C95.8074 172.536 95.9808 172.051 96.0208 171.546C96.1157 170.987 96.0814 170.414 95.9204 169.87C95.8895 169.654 95.8055 169.45 95.6758 169.274C95.5462 169.099 95.3751 168.959 95.1778 168.866C95.0523 168.812 94.9114 168.804 94.7807 168.845C94.6499 168.885 94.5381 168.971 94.4654 169.087C94.3449 169.258 94.375 169.398 94.3349 169.398C94.2948 169.398 94.2145 169.268 94.3349 169.007C94.3913 168.85 94.5015 168.719 94.646 168.636C94.8436 168.523 95.0773 168.49 95.2983 168.545C95.5498 168.642 95.7732 168.801 95.9483 169.006C96.1235 169.211 96.245 169.456 96.3017 169.719C96.5051 170.327 96.5568 170.974 96.4523 171.606C96.4071 172.189 96.1933 172.746 95.8369 173.209C95.4806 173.672 94.997 174.022 94.4453 174.215C94.2647 174.239 94.0811 174.222 93.9076 174.167C93.7341 174.111 93.575 174.018 93.4418 173.894C93.2311 173.733 93.221 173.583 93.2411 173.573Z" fill="#EB996E"/>
<path d="M61.7929 144.171C62.9163 142.401 64.4654 140.942 66.2986 139.926C70.1443 137.535 74.6453 136.415 79.1633 136.725C83.6984 137.078 87.9188 139.179 90.9342 142.585C93.2398 145.378 94.674 148.788 95.0585 152.389C95.4333 155.976 95.0923 159.602 94.055 163.056C93.7338 164.612 92.9626 166.039 91.8373 167.16C91.0847 167.803 89.8303 168.164 89.158 167.482C88.7826 167.032 88.5673 166.471 88.5459 165.886C87.7933 160.688 87.0908 155.099 89.439 150.402C88.4007 148.599 87.0039 147.028 85.3347 145.786C84.4961 145.171 83.5433 144.729 82.5319 144.486C81.5205 144.243 80.4709 144.204 79.4442 144.371C76.4338 144.973 74.3265 147.643 71.7876 149.389C69.9573 150.626 67.859 151.41 65.6659 151.677C63.4727 151.944 61.2475 151.686 59.1738 150.924L61.7929 144.171Z" fill="#263238"/>
<path d="M69.328 174.165C69.404 174.788 69.5696 175.396 69.8197 175.971C69.9478 176.259 70.1345 176.516 70.3678 176.727C70.601 176.937 70.8758 177.097 71.1744 177.196C71.5022 177.264 71.842 177.25 72.1628 177.153C72.4835 177.057 72.775 176.882 73.0108 176.644C73.4711 176.155 73.766 175.533 73.8537 174.868C73.954 174.265 73.8537 173.513 73.2616 173.312C73.0172 173.257 72.7635 173.257 72.5191 173.312L69.1674 173.924" fill="#EB996E"/>
<path d="M70.0318 176.965C70.5809 177.112 71.1518 177.16 71.7177 177.105C72.3011 177.009 72.8273 176.697 73.1928 176.232C73.4074 175.949 73.5595 175.624 73.639 175.278C73.7186 174.932 73.7238 174.573 73.6544 174.225C73.6208 174.048 73.5634 173.876 73.4838 173.714C73.3935 173.553 73.4136 173.563 73.2731 173.563C73.0942 173.583 72.9166 173.613 72.7412 173.653L72.1893 173.754L70.2827 174.075C69.7014 174.213 69.1028 174.264 68.5065 174.225C69.0375 173.951 69.6108 173.768 70.2024 173.683C70.7443 173.543 71.3765 173.402 72.089 173.242L72.6308 173.121C72.8315 173.121 72.9821 173.031 73.243 173.011C73.4047 172.998 73.5664 173.037 73.7046 173.121C73.8224 173.213 73.9184 173.329 73.9856 173.463C74.0889 173.669 74.1632 173.888 74.2063 174.115C74.2939 174.543 74.2844 174.985 74.1784 175.409C74.0725 175.832 73.8729 176.227 73.5942 176.563C73.1319 177.103 72.4757 177.438 71.7678 177.497C71.3087 177.553 70.8431 177.48 70.4232 177.286C70.1322 177.125 70.0117 176.995 70.0318 176.965Z" fill="#263238"/>
<path d="M45.5957 160.026L44.0403 159.604L19.8262 183.136L0.177902 185.504C0.177902 185.504 0.378605 179.574 7.75423 172.007C14.3772 165.244 29.7808 157.216 34.9989 153.061C35.6725 152.492 36.4354 152.038 37.2567 151.717L45.5957 160.026Z" fill="#FFBE9D"/>
<path d="M45.6062 148.827L48.0848 148.124L53.9251 145.355L60.5682 147.833C60.5682 147.833 60.4177 150.101 58.6716 149.479L65.6358 151.777C65.6358 151.777 65.0638 153.433 64.7527 153.543C64.4416 153.654 68.8369 154.015 68.8369 154.015C68.8369 154.015 68.8369 156.253 64.6724 156.212C60.508 156.172 58.8924 155.46 58.8924 155.46L55.5508 156.353L55.6812 158.36L60.237 158.29L60.0263 160.839C58.091 161.247 56.1345 161.549 54.1659 161.742C54.1659 161.742 47.1415 161.842 45.2349 160.919C43.3283 159.996 40.8998 158.681 40.8998 158.681L37.2572 151.737L45.6062 148.827Z" fill="#FFBE9D"/>
<path d="M51.8771 150.001C51.8771 150.061 52.2684 149.871 52.8806 149.59C53.7001 149.238 54.4889 148.818 55.2388 148.335H54.9377L55.2086 148.506C56.0379 149.036 56.9729 149.378 57.9482 149.509C58.6907 149.61 59.1523 149.509 59.1523 149.509C57.8719 149.204 56.6371 148.731 55.4796 148.104L55.2287 147.944L55.0782 147.844L54.9277 147.954C54.1148 148.516 53.2619 148.957 52.6999 149.309C52.138 149.66 51.8269 149.951 51.8771 150.001Z" fill="#EB996E"/>
<path d="M54.0154 153.543C54.0154 153.543 54.467 153.704 55.1393 153.413C55.8116 153.122 56.5643 152.409 57.5176 152.008H57.2767C57.7047 152.296 58.1542 152.551 58.6214 152.77C59.7962 153.332 61.0735 153.646 62.3745 153.694C62.909 153.762 63.4522 153.704 63.96 153.523C62.201 153.382 60.4745 152.969 58.8422 152.299C58.3975 152.092 57.9683 151.854 57.5577 151.586L57.4273 151.516H57.3169C56.2331 152.068 55.6009 152.801 55.0089 153.102C54.4168 153.403 54.0154 153.463 54.0154 153.543Z" fill="#EB996E"/>
<path d="M47.7938 155.721C47.7938 155.801 48.3056 155.651 49.0983 155.661C50.1247 155.674 51.1265 155.976 51.9884 156.534C52.5587 156.902 53.0472 157.383 53.4234 157.949L53.4836 158.039H53.5739C54.3467 158.259 55.1491 158.357 55.9521 158.33C55.2334 157.965 54.461 157.718 53.6642 157.597L53.8147 157.698C53.4381 157.045 52.9119 156.491 52.2794 156.082C51.3362 155.463 50.212 155.181 49.0883 155.279C48.2253 155.38 47.7637 155.671 47.7938 155.721Z" fill="#EB996E"/>
<path d="M40.8998 158.661C40.96 158.714 41.0276 158.758 41.1005 158.792L41.7327 159.153L44.1611 160.467C44.7352 160.82 45.3525 161.096 45.9975 161.29C46.774 161.471 47.5619 161.598 48.3557 161.672C50.0616 161.842 52.0084 161.912 54.1659 161.912L56.785 161.641C57.754 161.561 58.7142 161.396 59.6549 161.15H59.7553V161.019C59.8958 160.146 60.0463 159.193 60.2069 158.22L60.257 157.939H59.9761L55.641 158.119L55.9019 158.34C55.9019 157.728 55.8116 157.045 55.7715 156.333L55.5808 156.594L58.9324 155.701H58.7618C60.3888 156.196 62.0788 156.452 63.7793 156.463C64.6611 156.519 65.5464 156.475 66.4185 156.333C66.8945 156.274 67.3526 156.115 67.7626 155.866C68.1726 155.616 68.525 155.283 68.7967 154.888C68.948 154.624 69.0372 154.329 69.0576 154.025V153.794H68.8067C67.8033 153.704 66.7295 153.614 65.716 153.503L64.9734 153.403H64.8129V153.453C64.8431 153.48 64.8649 153.515 64.8756 153.554C64.8862 153.594 64.8854 153.635 64.8731 153.674C64.8731 153.764 64.6925 153.884 64.7326 153.844C64.7915 153.82 64.8458 153.786 64.8931 153.744C65.0017 153.631 65.093 153.502 65.1641 153.363C65.3962 152.902 65.5973 152.426 65.7662 151.938L65.8565 151.687L65.6056 151.607L58.5812 149.319L58.4207 149.78C58.7026 149.884 59.0056 149.919 59.3037 149.881C59.6095 149.826 59.8865 149.667 60.0864 149.429C60.4219 148.992 60.6177 148.464 60.6484 147.914V147.743L60.4678 147.673L53.8147 145.224H53.7344H53.6541L47.8238 148.024L45.3854 148.727L43.258 149.479L39.8863 150.703L37.7689 151.486C37.5183 151.561 37.2762 151.662 37.0464 151.787C37.301 151.731 37.5522 151.661 37.799 151.576L39.9465 150.884L43.3483 149.75L45.4757 149.038L47.9242 148.375L53.7845 145.636H53.614L60.257 148.134L60.0965 147.894C60.0705 148.341 59.9134 148.77 59.6449 149.128C59.5002 149.272 59.3151 149.368 59.1143 149.404C58.9135 149.44 58.7065 149.413 58.521 149.329L58.3605 149.8L65.3146 152.108L65.1541 151.777C65.0007 152.24 64.8094 152.69 64.5821 153.122C64.539 153.212 64.4851 153.296 64.4215 153.373C64.4496 153.408 64.4701 153.449 64.4817 153.493C64.3814 153.232 64.4817 153.423 64.4115 153.373H64.3412C64.2953 153.411 64.2635 153.464 64.2509 153.523C64.2414 153.566 64.2429 153.611 64.2552 153.653C64.2675 153.695 64.2902 153.733 64.3212 153.764C64.4014 153.844 64.3814 153.814 64.4014 153.824H64.4917H64.7025L65.4752 153.925C66.4787 154.045 67.4821 154.135 68.5759 154.226L68.3451 153.975C68.3218 154.183 68.257 154.384 68.1545 154.567C67.9214 154.895 67.6226 155.17 67.277 155.376C66.9314 155.581 66.5467 155.713 66.1475 155.761C65.3119 155.897 64.4635 155.937 63.6187 155.881C61.9847 155.876 60.3597 155.64 58.792 155.179H58.6916H58.6214L55.2797 156.082H55.079V156.283C55.079 156.975 55.1694 157.658 55.2095 158.29V158.531H55.4503L59.7754 158.33L59.5345 158.059C59.384 159.062 59.2335 159.996 59.103 160.869L59.2234 160.708C58.3265 160.933 57.4142 161.09 56.494 161.18L53.8949 161.471C51.7575 161.471 49.8208 161.471 48.1249 161.31C47.3424 161.257 46.5645 161.15 45.7968 160.989C45.1658 160.81 44.5592 160.554 43.9905 160.226L41.5219 159.002L40.8697 158.701C40.9801 158.681 40.9098 158.651 40.8998 158.661Z" fill="#EB996E"/>
<path d="M49.2891 151.105C49.9256 152.173 50.8103 153.071 51.8681 153.724C52.8345 154.508 53.9728 155.051 55.1896 155.31C55.2498 155.169 53.7847 154.457 52.1792 153.303C50.5736 152.149 49.4095 151.005 49.2891 151.105Z" fill="#EB996E"/>
<path d="M0.3881 184.772L19.8256 183.136L42.7453 191.857L47.7627 194.927L40.6179 219.432C40.6179 219.432 4.70309 198.269 3.17779 196.463C1.80959 194.88 0.841919 192.992 0.356403 190.958C-0.129112 188.923 -0.118233 186.801 0.3881 184.772Z" fill="#FFB64F"/>
<path d="M104.151 202.784L110.834 206.929L95.4004 267.69L98.2001 302.722C94.1861 306.194 84.1513 309.174 65.085 308.09C46.0188 307.007 33.2946 298.708 33.2946 298.708L35.1209 262.673L39.466 222.011L44.3329 194.205L59.024 195.268L64.7539 191.877L67.3228 193.161L70.6142 202.293L79.184 196.091L89.2189 191.264L92.8816 198.098L104.151 202.784Z" fill="#FFB64F"/>
<path d="M44.332 201.279C44.1181 201.711 43.9435 202.161 43.8102 202.624C43.4891 203.507 43.0877 204.791 42.606 206.397C41.3793 210.576 40.3744 214.816 39.5956 219.101C38.8406 223.385 38.3114 227.706 38.0101 232.046C37.8997 233.712 37.8495 235.056 37.8395 235.99C37.7878 236.473 37.7878 236.961 37.8395 237.445C37.9347 236.968 37.9918 236.485 38.0101 236C38.1004 234.996 38.2108 233.662 38.3512 232.076C38.6623 228.765 39.1942 224.189 40.0873 219.191C40.9804 214.194 42.0441 209.718 42.8971 206.497C43.3085 204.962 43.6597 203.677 43.9005 202.684C44.0959 202.233 44.2406 201.762 44.332 201.279Z" fill="#263238"/>
<path d="M73.3526 201.761C73.8419 201.677 74.3115 201.504 74.7374 201.249C75.9257 200.623 76.9554 199.734 77.7479 198.65L77.3867 198.55C77.5955 201.543 78.1995 204.496 79.1829 207.33L79.2933 207.651L79.5743 207.461L80.2767 206.969C83.7387 204.591 86.8495 202.413 89.0873 200.808L91.7164 198.891C92.052 198.672 92.3617 198.417 92.6396 198.128C92.2838 198.287 91.9472 198.486 91.6362 198.72L88.9167 200.507C86.6187 202.022 83.4778 204.159 80.0258 206.528L79.3133 207.009L79.7147 207.14C78.7405 204.346 78.107 201.445 77.8282 198.5V197.958L77.5171 198.399C76.7708 199.465 75.8104 200.364 74.6973 201.038C73.8243 201.53 73.3326 201.711 73.3526 201.761Z" fill="#263238"/>
<path d="M59.6153 196.352C60.6055 197.668 61.6959 198.906 62.8767 200.055L63.0573 200.246L63.2379 200.045C63.9117 199.256 64.6393 198.515 65.4155 197.827C65.8369 197.466 66.2484 197.125 66.6598 196.824L67.2719 196.372C67.3179 196.361 67.365 196.354 67.4124 196.352C67.4124 196.352 67.4124 196.352 67.5027 196.503L68.436 198.891C68.6903 199.645 69.0269 200.368 69.4395 201.048C69.3148 200.263 69.0993 199.496 68.7972 198.76C68.5363 198.008 68.2553 197.195 67.9643 196.332C67.9377 196.24 67.8929 196.155 67.8326 196.081C67.7722 196.006 67.6976 195.945 67.6131 195.901C67.5159 195.868 67.4124 195.859 67.3111 195.875C67.2099 195.891 67.1139 195.93 67.0311 195.991L66.3889 196.452C65.9574 196.764 65.5259 197.115 65.1044 197.456C64.3046 198.158 63.5661 198.927 62.8967 199.754H63.258C62.1337 198.527 60.9158 197.39 59.6153 196.352Z" fill="#263238"/>
<path d="M63.5885 305.461C57.1551 304.253 50.5272 304.581 44.2446 306.419C37.962 308.257 32.2024 311.553 27.4348 316.038C22.6671 320.524 19.0263 326.072 16.8088 332.23C14.5913 338.389 13.8598 344.985 14.6738 351.48C15.4879 357.975 17.8245 364.186 21.4934 369.607C25.1623 375.028 30.0598 379.506 35.7869 382.676C41.514 385.846 47.9089 387.619 54.4508 387.85C60.9926 388.08 67.4965 386.763 73.4327 384.004C81.4133 380.288 88.008 374.134 92.2664 366.43C96.5248 358.725 98.227 349.867 97.1277 341.133C96.0284 332.399 92.1843 324.239 86.1495 317.83C80.1147 311.421 72.2008 307.093 63.5484 305.471L63.5885 305.461ZM48.767 384.415C39.6919 382.701 31.5277 377.801 25.7461 370.599C19.9645 363.397 16.9457 354.366 17.234 345.135C17.5222 335.904 21.0984 327.079 27.3181 320.252C33.5377 313.425 41.9917 309.044 51.1561 307.898C60.3204 306.753 69.5924 308.92 77.3008 314.007C85.0091 319.094 90.6467 326.767 93.1974 335.644C95.7481 344.52 95.0441 354.016 91.2123 362.419C87.3805 370.822 80.673 377.58 72.2988 381.475C64.955 384.891 56.7254 385.919 48.767 384.415Z" fill="#455A64"/>
<path d="M55.9923 389.895C66.9398 389.91 77.4955 385.822 85.5775 378.437C93.6595 371.053 98.6811 360.908 99.6517 350.004C100.622 339.099 97.4717 328.227 90.8211 319.531C84.1705 310.835 74.5028 304.947 63.7248 303.028C52.9468 301.109 41.8409 303.299 32.5976 309.165C23.3544 315.031 16.6447 324.147 13.7921 334.717C10.9395 345.286 12.1509 356.541 17.1876 366.261C22.2242 375.981 30.7203 383.461 41.0002 387.225C45.8016 388.99 50.8768 389.894 55.9923 389.895ZM55.902 309.505C61.0217 309.502 66.0858 310.566 70.7704 312.632C75.455 314.697 79.6569 317.718 83.1073 321.5C86.5577 325.282 89.1806 329.743 90.8083 334.597C92.436 339.451 93.0326 344.592 92.5599 349.69C92.0872 354.787 90.5557 359.73 88.0632 364.203C85.5708 368.675 82.1724 372.577 78.0854 375.661C73.9984 378.744 69.3127 380.94 64.3283 382.109C59.3438 383.278 54.1702 383.394 49.1385 382.449C43.3947 381.359 37.9917 378.922 33.3739 375.337C28.756 371.752 25.0553 367.122 22.5762 361.827C19.9712 356.222 18.8194 350.052 19.2272 343.885C19.635 337.717 21.5892 331.752 24.9096 326.539C28.23 321.326 32.8096 317.033 38.226 314.056C43.6425 311.079 49.7214 309.514 55.902 309.505Z" fill="#455A64"/>
<path d="M157.053 305.732L156.682 304.829C155.899 302.892 154.173 301.758 152.829 302.31L92.0776 327.026C91.7765 327.146 91.6762 327.598 91.8468 328.029L94.4358 334.392C94.6164 334.823 94.9977 335.074 95.2988 334.953L156.05 310.187C157.395 309.636 157.846 307.629 157.053 305.732Z" fill="#455A64"/>
<path d="M100.316 235.729L107.622 259.903L103.959 309.174L114.736 310.529C114.736 310.529 127.079 268.603 125.855 261.017C124.631 253.43 119.593 231.333 119.593 231.333L100.316 235.729Z" fill="#FFBE9D"/>
<path d="M103.989 308.823L98.9715 317.393L95.8406 325.42L100.527 323.584C100.527 323.584 102.534 333.278 103.347 333.529C104.159 333.779 106.417 332.997 106.187 331.14C106.521 331.466 106.925 331.711 107.369 331.857C107.812 332.003 108.283 332.047 108.745 331.983C110.17 331.692 110.512 330.769 110.351 328.973C110.351 328.973 112.007 330.317 113 329.485C113.304 329.185 113.541 328.824 113.695 328.427C113.849 328.029 113.916 327.603 113.893 327.177C113.893 327.177 116.051 327.357 116.352 326.243C116.669 324.413 116.709 322.546 116.472 320.704C116.221 319.48 115.178 314.502 115.178 314.502L114.696 310.489L103.989 308.823Z" fill="#FFBE9D"/>
<path d="M105.164 325.551C105.555 326.423 105.809 327.351 105.916 328.301C106.164 329.226 106.269 330.184 106.227 331.141C105.834 330.269 105.58 329.341 105.475 328.391C105.227 327.466 105.122 326.508 105.164 325.551Z" fill="#EB996E"/>
<path d="M109.558 324.437C109.926 325.114 110.155 325.857 110.23 326.624C110.453 327.365 110.532 328.142 110.461 328.912C110.101 328.229 109.873 327.483 109.789 326.715C109.571 325.976 109.493 325.204 109.558 324.437Z" fill="#EB996E"/>
<path d="M113.231 323.403C113.449 324.012 113.565 324.653 113.573 325.3C113.743 326.303 114.014 327.156 113.884 327.206C113.438 326.694 113.173 326.048 113.131 325.37C112.979 324.718 113.014 324.036 113.231 323.403Z" fill="#EB996E"/>
<path d="M100.196 320.784C100.584 321.64 100.854 322.545 100.999 323.474C101.289 324.368 101.465 325.295 101.521 326.233C101.036 325.419 100.712 324.52 100.567 323.584C100.271 322.682 100.145 321.733 100.196 320.784Z" fill="#EB996E"/>
<path d="M126.448 277.293C126.448 276.47 129.819 264.99 128.796 259.039C127.772 253.089 115.53 212.879 113.884 210.009C112.587 208.073 110.777 206.538 108.656 205.574C106.294 206.854 104.213 208.597 102.539 210.699C100.865 212.8 99.6316 215.218 98.912 217.806C96.4534 226.627 96.4534 237.695 96.4534 237.695L106.298 262.11L105.124 275.978L126.448 277.293Z" fill="#FFB64F"/>
<path d="M97.076 236.893C97.1763 236.893 96.9857 235.087 97.076 232.196C97.1375 230.516 97.3017 228.84 97.5677 227.179C98.2055 223.082 99.4643 219.106 101.301 215.388C102.047 213.87 102.885 212.399 103.809 210.983C105.395 208.554 106.579 207.2 106.509 207.139C106.182 207.411 105.886 207.717 105.626 208.053C104.875 208.905 104.178 209.803 103.538 210.742C102.562 212.145 101.684 213.614 100.909 215.137C99.009 218.886 97.7313 222.919 97.1262 227.079C96.8856 228.774 96.7582 230.484 96.7448 232.196C96.729 233.346 96.786 234.496 96.9154 235.638C96.9287 236.061 96.9825 236.481 97.076 236.893Z" fill="#263238"/>
<path d="M97.7071 242C97.9527 243.031 98.2885 244.039 98.7106 245.011C99.4231 246.867 100.497 249.386 101.721 252.136L104.892 259.16C105.278 260.158 105.734 261.127 106.257 262.06C106.011 261.029 105.676 260.022 105.253 259.05C104.541 257.193 103.467 254.675 102.243 251.925L99.0719 244.901C98.686 243.903 98.23 242.934 97.7071 242Z" fill="#263238"/>
<path d="M105.725 263.054C107.891 261.898 110.146 260.918 112.469 260.124C114.845 259.503 117.268 259.077 119.714 258.849C118.996 258.692 118.257 258.652 117.526 258.729C115.76 258.813 114.011 259.113 112.318 259.622C110.623 260.129 108.998 260.847 107.481 261.759C106.831 262.094 106.238 262.531 105.725 263.054Z" fill="#263238"/>
<path d="M41.6427 332.204C41.5524 332.315 49.4598 339.229 59.3141 347.668C69.1683 356.107 77.2263 362.841 77.3166 362.72C77.4069 362.6 69.4995 355.696 59.6452 347.267C49.791 338.837 41.733 332.094 41.6427 332.204Z" fill="white"/>
<path d="M31.4675 332.204C31.3672 332.315 38.0303 338.225 46.3492 345.34C54.6681 352.455 61.4718 358.195 61.5721 358.084C61.6725 357.974 54.9993 352.063 46.6904 344.948C38.3816 337.834 31.5578 332.094 31.4675 332.204Z" fill="white"/>
<path d="M16.4845 346.303C16.4845 346.303 16.4844 346.092 16.5447 345.671C16.6049 345.249 16.6049 344.607 16.6651 343.794C16.6651 343.383 16.6651 342.921 16.7454 342.419C16.8256 341.918 16.9059 341.366 16.9962 340.764C17.0865 340.162 17.1869 339.529 17.2973 338.847C17.4077 338.165 17.6385 337.462 17.8091 336.699C18.735 333.011 20.2099 329.483 22.1842 326.233C24.7682 321.915 28.1579 318.133 32.1689 315.094L33.8648 313.83C34.4669 313.439 35.0891 313.087 35.7113 312.706C36.3334 312.325 36.9455 311.903 37.6279 311.592L39.6349 310.589L40.6384 310.097L41.7322 309.706L43.9398 308.903C44.6925 308.652 45.4752 308.491 46.2479 308.281C47.0291 308.053 47.8233 307.872 48.6261 307.739C50.2635 307.435 51.9198 307.244 53.5834 307.167C54.4263 307.167 55.2792 307.056 56.1422 307.067L58.7312 307.207C59.1728 307.207 59.6143 307.207 60.0458 307.287L61.3503 307.488C62.2234 307.639 63.1165 307.739 63.9895 307.919C65.7641 308.316 67.5106 308.829 69.2177 309.455C70.9694 310.087 72.676 310.838 74.3254 311.703C75.1583 312.154 75.9511 312.706 76.7739 313.158C77.1753 313.419 77.5968 313.639 77.9781 313.92L79.1321 314.793C82.3591 317.094 85.1806 319.915 87.4811 323.142L88.3843 324.347L89.177 325.641L89.9597 326.936C90.2374 327.361 90.4823 327.807 90.6923 328.27L92.0169 331.03C92.3781 332.033 92.7294 332.966 93.0806 333.94C95.7767 341.961 95.7767 350.644 93.0806 358.666C92.7193 359.669 92.3681 360.603 92.0169 361.566C91.6657 362.529 91.1238 363.412 90.6823 364.335L90.3511 365.018L89.9497 365.67L89.167 366.965L88.3742 368.259L87.4711 369.463C86.2964 371.047 85.0192 372.552 83.6478 373.969C82.2473 375.323 80.7625 376.586 79.2024 377.752L78.0484 378.615C77.657 378.906 77.2355 379.117 76.8341 379.378C76.0113 379.859 75.2185 380.381 74.3957 380.833C72.7439 381.7 71.0338 382.451 69.2779 383.081C67.5708 383.707 65.8243 384.22 64.0497 384.616C63.1767 384.797 62.2836 384.897 61.4105 385.047L60.106 385.248C59.6645 385.308 59.233 385.298 58.7915 385.328L56.2025 385.469C55.3395 385.469 54.4865 385.399 53.6436 385.369C51.98 385.292 50.3237 385.101 48.6863 384.797C47.8826 384.668 47.0881 384.487 46.3081 384.255C45.5354 384.044 44.7426 383.883 44 383.643L41.7924 382.83L40.6986 382.438L39.6951 381.947L37.6881 380.943C37.0058 380.632 36.4037 380.191 35.7715 379.829C35.1393 379.468 34.5271 379.097 33.925 378.705L32.2292 377.441C28.2157 374.405 24.8256 370.623 22.2445 366.302C20.2555 363.078 18.7605 359.574 17.8091 355.906C17.6385 355.144 17.3775 354.451 17.2973 353.759C17.217 353.066 17.0865 352.434 16.9962 351.842C16.9059 351.25 16.7955 350.698 16.7454 350.196C16.6952 349.695 16.6851 349.193 16.6651 348.812C16.6049 348.009 16.5647 347.387 16.5447 346.945C16.5447 346.524 16.4845 346.303 16.4845 346.303C16.4845 346.303 16.4845 346.524 16.4845 346.945C16.4845 347.367 16.4845 348.009 16.5547 348.822C16.5547 349.236 16.5748 349.698 16.6149 350.206C16.6149 350.708 16.7554 351.26 16.8357 351.862L17.1167 353.789C17.2475 354.519 17.415 355.243 17.6184 355.956C18.5035 359.68 19.959 363.244 21.9334 366.523C24.5189 370.895 27.9266 374.726 31.9682 377.802L33.6742 379.087C34.2763 379.478 34.9085 379.849 35.5306 380.231C36.1528 380.612 36.7749 381.044 37.4573 381.365L39.5145 382.368L40.518 382.86L41.6218 383.271L43.8495 384.084C44.6021 384.345 45.3949 384.506 46.1877 384.716C46.973 384.957 47.7745 385.141 48.586 385.268C50.2423 385.584 51.919 385.782 53.6034 385.86C54.4664 385.86 55.3194 385.981 56.1924 385.971L58.8216 385.84C59.2531 385.84 59.7046 385.84 60.1462 385.76L61.4708 385.559C62.3538 385.409 63.2469 385.308 64.14 385.128C65.9354 384.731 67.7021 384.215 69.4284 383.582C71.21 382.952 72.9439 382.194 74.6164 381.314C75.4493 380.863 76.2521 380.311 77.085 379.849C77.4964 379.588 77.9279 379.368 78.3193 379.077L79.4532 378.184C81.0397 377.012 82.5451 375.735 83.9589 374.36C85.363 372.922 86.6641 371.386 87.8524 369.764L88.7756 368.55L89.5684 367.236L90.3712 365.921L90.7726 365.269L91.1138 364.566L92.4986 361.767L93.5823 358.826C96.3189 350.688 96.3189 341.878 93.5823 333.739L92.4986 330.819C92.047 329.886 91.5954 328.953 91.1539 328.019C90.9361 327.552 90.6881 327.1 90.4113 326.665L89.6085 325.35L88.8057 324.046L87.8926 322.831C86.6982 321.215 85.3975 319.679 83.999 318.235C82.5852 316.861 81.0799 315.583 79.4934 314.412L78.3193 313.539C77.925 313.257 77.5164 312.996 77.095 312.756C76.2622 312.275 75.4594 311.753 74.6265 311.291C72.9519 310.416 71.2184 309.658 69.4384 309.023C67.7122 308.391 65.9454 307.874 64.1501 307.478C63.257 307.297 62.3639 307.197 61.4808 307.046L60.1562 306.846C59.7147 306.796 59.2731 306.796 58.8316 306.765L56.2025 306.635C55.3395 306.635 54.4764 306.715 53.6235 306.745C51.9391 306.823 50.2624 307.021 48.6061 307.337C47.7966 307.475 46.9959 307.659 46.2077 307.889C45.425 308.1 44.6322 308.271 43.8696 308.522L41.6419 309.334L40.5481 309.746L39.5446 310.248L37.5376 311.251C36.8731 311.592 36.2266 311.967 35.6009 312.375C34.9787 312.756 34.3465 313.128 33.7444 313.519L32.0385 314.803C27.9968 317.88 24.5892 321.71 22.0036 326.083C20.0293 329.361 18.5737 332.926 17.6886 336.649C17.518 337.412 17.2672 338.124 17.1869 338.817C17.1066 339.509 16.9962 340.151 16.9059 340.744C16.8156 341.336 16.7253 341.898 16.6851 342.399C16.645 342.901 16.6851 343.403 16.6249 343.784C16.6249 344.597 16.6249 345.219 16.5547 345.661C16.4845 346.102 16.4845 346.303 16.4845 346.303Z" fill="#263238"/>
<path d="M31.0449 367.246C30.7378 366.778 30.4026 366.329 30.0414 365.901C29.1293 364.699 28.2915 363.442 27.5327 362.138C24.9939 357.85 23.4107 353.064 22.8911 348.107C22.3716 343.15 22.9279 338.14 24.5223 333.418C25.0033 331.987 25.5627 330.583 26.1981 329.214C26.4667 328.727 26.6982 328.22 26.8905 327.698C26.8905 327.698 26.7901 327.809 26.6396 328.05C26.4891 328.291 26.2683 328.642 26.0175 329.123C25.3021 330.467 24.6883 331.863 24.1811 333.298C22.4615 338.051 21.839 343.131 22.3603 348.158C22.8817 353.186 24.5333 358.03 27.1915 362.329C27.9913 363.626 28.8834 364.863 29.8608 366.032C30.202 366.443 30.503 366.744 30.6937 366.955C30.8844 367.166 31.0249 367.256 31.0449 367.246Z" fill="#263238"/>
<path d="M33.1217 370.848C33.0515 370.979 33.3626 371.29 33.8141 371.551C34.2657 371.811 34.6972 371.912 34.7674 371.791C34.8377 371.671 34.5266 371.35 34.075 371.089C33.6235 370.828 33.192 370.728 33.1217 370.848Z" fill="#263238"/>
<path d="M84.8633 363.192C84.964 363.046 85.045 362.887 85.1041 362.72C85.2446 362.409 85.4653 361.948 85.6961 361.325C86.3643 359.583 86.8977 357.791 87.2917 355.967C88.6126 349.911 88.4579 343.627 86.8407 337.643C85.2235 331.66 82.1911 326.153 77.9994 321.587C76.7465 320.202 75.3841 318.92 73.9252 317.754C73.4235 317.333 72.992 317.052 72.711 316.841C72.43 316.63 72.2795 316.54 72.2595 316.56C72.2394 316.58 72.8013 317.052 73.7948 317.915C75.1923 319.129 76.5064 320.437 77.7285 321.828C81.7984 326.407 84.7476 331.869 86.3429 337.783C87.9382 343.698 88.1359 349.902 86.9204 355.907C86.5566 357.719 86.0738 359.506 85.4754 361.255C85.084 362.499 84.8231 363.182 84.8633 363.192Z" fill="white"/>
<path d="M61.5706 314.011C63.0854 314.481 64.6849 314.615 66.2568 314.402C65.5279 314.078 64.7361 313.921 63.9388 313.941C63.1536 313.792 62.3455 313.816 61.5706 314.011Z" fill="white"/>
</svg>
